<?xml version="1.0" encoding="UTF-8" standalone="no"?><!DOCTYPE svg PUBLIC "-//W3C//DTD SVG 1.1//EN" "http://www.w3.org/Graphics/SVG/1.1/DTD/svg11.dtd"><!-- Generated by graphviz version 2.40.1 (20161225.0304)
 --><!-- Title: G Pages: 1 --><svg xmlns="http://www.w3.org/2000/svg" xmlns:xlink="http://www.w3.org/1999/xlink" width="1108pt" height="337pt" viewBox="0.00 0.00 1107.56 337.00">
<g id="graph0" class="graph" transform="scale(1 1) rotate(0) translate(4 333)">
<title>G</title>
<polygon fill="#ffffff" stroke="transparent" points="-4,4 -4,-333 1103.5593,-333 1103.5593,4 -4,4"/>
<!-- 0 -->
<g id="node1" class="node">
<title>0</title>
<polygon fill="none" stroke="#000000" points="368.3296,-292.5 368.3296,-328.5 465.256,-328.5 465.256,-292.5 368.3296,-292.5"/>
<text text-anchor="middle" x="407.0428" y="-306.3" font-family="Times,serif" font-size="14.00" fill="#000000">Markdown</text>
<polyline fill="none" stroke="#000000" points="445.756,-292.5 445.756,-328.5 "/>
<text text-anchor="middle" x="455.506" y="-306.3" font-family="Times,serif" font-size="14.00" fill="#000000"> </text>
</g>
<!-- 1 -->
<g id="node2" class="node">
<title>1</title>
<polygon fill="none" stroke="#000000" points="0,-219.5 0,-255.5 87.5856,-255.5 87.5856,-219.5 0,-219.5"/>
<text text-anchor="middle" x="34.0428" y="-233.3" font-family="Times,serif" font-size="14.00" fill="#000000">NewLine</text>
<polyline fill="none" stroke="#000000" points="68.0856,-219.5 68.0856,-255.5 "/>
<text text-anchor="middle" x="77.8356" y="-233.3" font-family="Times,serif" font-size="14.00" fill="#000000"> </text>
</g>
<!-- 0&#45;&gt;1 -->
<g id="edge13" class="edge">
<title>0:f0-&gt;1</title>
<path fill="none" stroke="#000000" d="M368.7928,-310.5C271.3581,-310.5 161.3993,-278.8792 97.6068,-257.2601"/>
<polygon fill="#000000" stroke="#000000" points="98.3685,-253.8211 87.7738,-253.8826 96.0945,-260.4414 98.3685,-253.8211"/>
</g>
<!-- 2 -->
<g id="node3" class="node">
<title>2</title>
<polygon fill="none" stroke="#000000" points="106.0368,-219.5 106.0368,-255.5 239.5488,-255.5 239.5488,-219.5 106.0368,-219.5"/>
<text text-anchor="middle" x="134.2423" y="-233.3" font-family="Times,serif" font-size="14.00" fill="#000000">Header</text>
<polyline fill="none" stroke="#000000" points="162.4478,-219.5 162.4478,-255.5 "/>
<text text-anchor="middle" x="191.2483" y="-233.3" font-family="Times,serif" font-size="14.00" fill="#000000">level: 1</text>
<polyline fill="none" stroke="#000000" points="220.0488,-219.5 220.0488,-255.5 "/>
<text text-anchor="middle" x="229.7988" y="-233.3" font-family="Times,serif" font-size="14.00" fill="#000000"> </text>
</g>
<!-- 0&#45;&gt;2 -->
<g id="edge14" class="edge">
<title>0:f10-&gt;2</title>
<path fill="none" stroke="#000000" d="M370.0696,-292.4254C369.6424,-292.2821 369.2167,-292.1403 368.7928,-292 330.0214,-279.1713 286.288,-266.8128 249.9849,-257.117"/>
<polygon fill="#000000" stroke="#000000" points="250.5162,-253.6369 239.9529,-254.4547 248.7206,-260.4027 250.5162,-253.6369"/>
</g>
<!-- 4 -->
<g id="node5" class="node">
<title>4</title>
<polygon fill="none" stroke="#000000" points="258,-219.5 258,-255.5 345.5856,-255.5 345.5856,-219.5 258,-219.5"/>
<text text-anchor="middle" x="292.0428" y="-233.3" font-family="Times,serif" font-size="14.00" fill="#000000">NewLine</text>
<polyline fill="none" stroke="#000000" points="326.0856,-219.5 326.0856,-255.5 "/>
<text text-anchor="middle" x="335.8356" y="-233.3" font-family="Times,serif" font-size="14.00" fill="#000000"> </text>
</g>
<!-- 0&#45;&gt;4 -->
<g id="edge15" class="edge">
<title>0:f21-&gt;4</title>
<path fill="none" stroke="#000000" d="M388.3658,-292.4551C373.4378,-282.979 354.9618,-271.2508 338.917,-261.0658"/>
<polygon fill="#000000" stroke="#000000" points="340.6097,-257.9947 330.2913,-255.5904 336.8582,-263.9046 340.6097,-257.9947"/>
</g>
<!-- 5 -->
<g id="node6" class="node">
<title>5</title>
<polygon fill="none" stroke="#000000" points="364.0477,-219.5 364.0477,-255.5 469.5379,-255.5 469.5379,-219.5 364.0477,-219.5"/>
<text text-anchor="middle" x="407.0428" y="-233.3" font-family="Times,serif" font-size="14.00" fill="#000000">InlineStrong</text>
<polyline fill="none" stroke="#000000" points="450.0379,-219.5 450.0379,-255.5 "/>
<text text-anchor="middle" x="459.7879" y="-233.3" font-family="Times,serif" font-size="14.00" fill="#000000"> </text>
</g>
<!-- 0&#45;&gt;5 -->
<g id="edge16" class="edge">
<title>0:f32-&gt;5</title>
<path fill="none" stroke="#000000" d="M416.7928,-292.4551C416.7928,-284.3828 416.7928,-274.6764 416.7928,-265.6817"/>
<polygon fill="#000000" stroke="#000000" points="420.2929,-265.5903 416.7928,-255.5904 413.2929,-265.5904 420.2929,-265.5903"/>
</g>
<!-- 8 -->
<g id="node9" class="node">
<title>8</title>
<polygon fill="none" stroke="#000000" points="488,-219.5 488,-255.5 575.5856,-255.5 575.5856,-219.5 488,-219.5"/>
<text text-anchor="middle" x="522.0428" y="-233.3" font-family="Times,serif" font-size="14.00" fill="#000000">NewLine</text>
<polyline fill="none" stroke="#000000" points="556.0856,-219.5 556.0856,-255.5 "/>
<text text-anchor="middle" x="565.8356" y="-233.3" font-family="Times,serif" font-size="14.00" fill="#000000"> </text>
</g>
<!-- 0&#45;&gt;8 -->
<g id="edge17" class="edge">
<title>0:f43-&gt;8</title>
<path fill="none" stroke="#000000" d="M444.2028,-292.38C444.4001,-292.2528 444.5968,-292.1261 444.7928,-292 460.7051,-281.7614 478.3818,-270.6419 493.6229,-261.1329"/>
<polygon fill="#000000" stroke="#000000" points="495.6453,-263.9967 502.2834,-255.7392 491.9447,-258.0548 495.6453,-263.9967"/>
</g>
<!-- 9 -->
<g id="node10" class="node">
<title>9</title>
<polygon fill="none" stroke="#000000" points="593.4327,-219.5 593.4327,-255.5 684.1529,-255.5 684.1529,-219.5 593.4327,-219.5"/>
<text text-anchor="middle" x="629.0428" y="-233.3" font-family="Times,serif" font-size="14.00" fill="#000000">ListBlock</text>
<polyline fill="none" stroke="#000000" points="664.6529,-219.5 664.6529,-255.5 "/>
<text text-anchor="middle" x="674.4029" y="-233.3" font-family="Times,serif" font-size="14.00" fill="#000000"> </text>
</g>
<!-- 0&#45;&gt;9 -->
<g id="edge18" class="edge">
<title>0:f54-&gt;9</title>
<path fill="none" stroke="#000000" d="M443.8332,-292.4358C444.1534,-292.2872 444.4733,-292.1418 444.7928,-292 500.6463,-267.2059 521.2253,-273.6784 583.3092,-256.274"/>
<polygon fill="#000000" stroke="#000000" points="584.5827,-259.5488 593.2089,-253.3974 582.6294,-252.8268 584.5827,-259.5488"/>
</g>
<!-- 19 -->
<g id="node20" class="node">
<title>19</title>
<polygon fill="none" stroke="#000000" points="702,-219.5 702,-255.5 789.5856,-255.5 789.5856,-219.5 702,-219.5"/>
<text text-anchor="middle" x="736.0428" y="-233.3" font-family="Times,serif" font-size="14.00" fill="#000000">NewLine</text>
<polyline fill="none" stroke="#000000" points="770.0856,-219.5 770.0856,-255.5 "/>
<text text-anchor="middle" x="779.8356" y="-233.3" font-family="Times,serif" font-size="14.00" fill="#000000"> </text>
</g>
<!-- 0&#45;&gt;19 -->
<g id="edge19" class="edge">
<title>0:f65-&gt;19</title>
<path fill="none" stroke="#000000" d="M443.8128,-292.3861C444.1394,-292.2532 444.4661,-292.1245 444.7928,-292 545.9248,-253.4697 582.5286,-280.8236 691.9779,-255.9028"/>
<polygon fill="#000000" stroke="#000000" points="692.8148,-259.3015 701.7369,-253.5876 691.199,-252.4905 692.8148,-259.3015"/>
</g>
<!-- 3 -->
<g id="node4" class="node">
<title>3</title>
<polygon fill="none" stroke="#000000" points="29.1213,-146.5 29.1213,-182.5 238.4643,-182.5 238.4643,-146.5 29.1213,-146.5"/>
<text text-anchor="middle" x="62.7791" y="-160.3" font-family="Times,serif" font-size="14.00" fill="#000000">RawText</text>
<polyline fill="none" stroke="#000000" points="96.4369,-146.5 96.4369,-182.5 "/>
<text text-anchor="middle" x="157.7006" y="-160.3" font-family="Times,serif" font-size="14.00" fill="#000000">content: Heading 1</text>
<polyline fill="none" stroke="#000000" points="218.9643,-146.5 218.9643,-182.5 "/>
<text text-anchor="middle" x="228.7143" y="-160.3" font-family="Times,serif" font-size="14.00" fill="#000000"> </text>
</g>
<!-- 2&#45;&gt;3 -->
<g id="edge1" class="edge">
<title>2:f0-&gt;3</title>
<path fill="none" stroke="#000000" d="M133.7928,-219.5C133.7928,-210.9063 133.7928,-201.5572 133.7928,-193.0461"/>
<polygon fill="#000000" stroke="#000000" points="137.2929,-192.8333 133.7928,-182.8333 130.2929,-192.8334 137.2929,-192.8333"/>
</g>
<!-- 6 -->
<g id="node7" class="node">
<title>6</title>
<polygon fill="none" stroke="#000000" points="302.2258,-146.5 302.2258,-182.5 419.3598,-182.5 419.3598,-146.5 302.2258,-146.5"/>
<text text-anchor="middle" x="351.0428" y="-160.3" font-family="Times,serif" font-size="14.00" fill="#000000">InlineOverline</text>
<polyline fill="none" stroke="#000000" points="399.8598,-146.5 399.8598,-182.5 "/>
<text text-anchor="middle" x="409.6098" y="-160.3" font-family="Times,serif" font-size="14.00" fill="#000000"> </text>
</g>
<!-- 5&#45;&gt;6 -->
<g id="edge3" class="edge">
<title>5:f0-&gt;6</title>
<path fill="none" stroke="#000000" d="M406.7928,-219.5C406.7928,-208.3493 401.1606,-198.2679 393.8377,-189.8729"/>
<polygon fill="#000000" stroke="#000000" points="396.254,-187.3381 386.7503,-182.6549 391.2592,-192.2425 396.254,-187.3381"/>
</g>
<!-- 7 -->
<g id="node8" class="node">
<title>7</title>
<polygon fill="none" stroke="#000000" points="170.1227,-73.5 170.1227,-109.5 421.4629,-109.5 421.4629,-73.5 170.1227,-73.5"/>
<text text-anchor="middle" x="203.7805" y="-87.3" font-family="Times,serif" font-size="14.00" fill="#000000">RawText</text>
<polyline fill="none" stroke="#000000" points="237.4383,-73.5 237.4383,-109.5 "/>
<text text-anchor="middle" x="319.7006" y="-87.3" font-family="Times,serif" font-size="14.00" fill="#000000">content: To be or not to be</text>
<polyline fill="none" stroke="#000000" points="401.9629,-73.5 401.9629,-109.5 "/>
<text text-anchor="middle" x="411.7129" y="-87.3" font-family="Times,serif" font-size="14.00" fill="#000000"> </text>
</g>
<!-- 6&#45;&gt;7 -->
<g id="edge2" class="edge">
<title>6:f0-&gt;7</title>
<path fill="none" stroke="#000000" d="M301.7928,-164.5C282.9731,-164.5 283.9078,-140.1026 288.0463,-119.5166"/>
<polygon fill="#000000" stroke="#000000" points="291.5092,-120.0749 290.3384,-109.5449 284.6871,-118.5067 291.5092,-120.0749"/>
</g>
<!-- 10 -->
<g id="node11" class="node">
<title>10</title>
<polygon fill="none" stroke="#000000" points="552.2146,-146.5 552.2146,-182.5 613.371,-182.5 613.371,-146.5 552.2146,-146.5"/>
<text text-anchor="middle" x="573.0428" y="-160.3" font-family="Times,serif" font-size="14.00" fill="#000000">Item</text>
<polyline fill="none" stroke="#000000" points="593.871,-146.5 593.871,-182.5 "/>
<text text-anchor="middle" x="603.621" y="-160.3" font-family="Times,serif" font-size="14.00" fill="#000000"> </text>
</g>
<!-- 9&#45;&gt;10 -->
<g id="edge10" class="edge">
<title>9:f0-&gt;10</title>
<path fill="none" stroke="#000000" d="M628.7928,-219.5C628.7928,-208.3493 623.1606,-198.2679 615.8377,-189.8729"/>
<polygon fill="#000000" stroke="#000000" points="618.254,-187.3381 608.7503,-182.6549 613.2592,-192.2425 618.254,-187.3381"/>
</g>
<!-- 12 -->
<g id="node13" class="node">
<title>12</title>
<polygon fill="none" stroke="#000000" points="654.2146,-146.5 654.2146,-182.5 715.371,-182.5 715.371,-146.5 654.2146,-146.5"/>
<text text-anchor="middle" x="675.0428" y="-160.3" font-family="Times,serif" font-size="14.00" fill="#000000">Item</text>
<polyline fill="none" stroke="#000000" points="695.871,-146.5 695.871,-182.5 "/>
<text text-anchor="middle" x="705.621" y="-160.3" font-family="Times,serif" font-size="14.00" fill="#000000"> </text>
</g>
<!-- 9&#45;&gt;12 -->
<g id="edge11" class="edge">
<title>9:f11-&gt;12</title>
<path fill="none" stroke="#000000" d="M650.1636,-219.4551C655.5266,-210.9441 662.0345,-200.6165 667.9543,-191.2219"/>
<polygon fill="#000000" stroke="#000000" points="671.0233,-192.9167 673.3934,-182.5904 665.101,-189.1848 671.0233,-192.9167"/>
</g>
<!-- 14 -->
<g id="node15" class="node">
<title>14</title>
<polygon fill="none" stroke="#000000" points="821.4327,-146.5 821.4327,-182.5 912.1529,-182.5 912.1529,-146.5 821.4327,-146.5"/>
<text text-anchor="middle" x="857.0428" y="-160.3" font-family="Times,serif" font-size="14.00" fill="#000000">ListBlock</text>
<polyline fill="none" stroke="#000000" points="892.6529,-146.5 892.6529,-182.5 "/>
<text text-anchor="middle" x="902.4029" y="-160.3" font-family="Times,serif" font-size="14.00" fill="#000000"> </text>
</g>
<!-- 9&#45;&gt;14 -->
<g id="edge12" class="edge">
<title>9:f23-&gt;14</title>
<path fill="none" stroke="#000000" d="M662.9175,-219.4329C663.2092,-219.2852 663.501,-219.1408 663.7928,-219 711.0028,-196.2137 769.152,-181.8389 811.0971,-173.6106"/>
<polygon fill="#000000" stroke="#000000" points="811.9588,-177.0095 821.1269,-171.6994 810.6485,-170.1332 811.9588,-177.0095"/>
</g>
<!-- 11 -->
<g id="node12" class="node">
<title>11</title>
<polygon fill="none" stroke="#000000" points="439.0263,-73.5 439.0263,-109.5 614.5593,-109.5 614.5593,-73.5 439.0263,-73.5"/>
<text text-anchor="middle" x="472.6841" y="-87.3" font-family="Times,serif" font-size="14.00" fill="#000000">RawText</text>
<polyline fill="none" stroke="#000000" points="506.3419,-73.5 506.3419,-109.5 "/>
<text text-anchor="middle" x="550.7006" y="-87.3" font-family="Times,serif" font-size="14.00" fill="#000000">content: list1</text>
<polyline fill="none" stroke="#000000" points="595.0593,-73.5 595.0593,-109.5 "/>
<text text-anchor="middle" x="604.8093" y="-87.3" font-family="Times,serif" font-size="14.00" fill="#000000"> </text>
</g>
<!-- 10&#45;&gt;11 -->
<g id="edge4" class="edge">
<title>10:f0-&gt;11</title>
<path fill="none" stroke="#000000" d="M572.7928,-146.5C572.7928,-135.3493 567.1606,-125.2679 559.8377,-116.8729"/>
<polygon fill="#000000" stroke="#000000" points="562.254,-114.3381 552.7503,-109.6549 557.2592,-119.2425 562.254,-114.3381"/>
</g>
<!-- 13 -->
<g id="node14" class="node">
<title>13</title>
<polygon fill="none" stroke="#000000" points="633.0263,-73.5 633.0263,-109.5 808.5593,-109.5 808.5593,-73.5 633.0263,-73.5"/>
<text text-anchor="middle" x="666.6841" y="-87.3" font-family="Times,serif" font-size="14.00" fill="#000000">RawText</text>
<polyline fill="none" stroke="#000000" points="700.3419,-73.5 700.3419,-109.5 "/>
<text text-anchor="middle" x="744.7006" y="-87.3" font-family="Times,serif" font-size="14.00" fill="#000000">content: list2</text>
<polyline fill="none" stroke="#000000" points="789.0593,-73.5 789.0593,-109.5 "/>
<text text-anchor="middle" x="798.8093" y="-87.3" font-family="Times,serif" font-size="14.00" fill="#000000"> </text>
</g>
<!-- 12&#45;&gt;13 -->
<g id="edge5" class="edge">
<title>12:f0-&gt;13</title>
<path fill="none" stroke="#000000" d="M674.7928,-146.5C674.7928,-135.3493 680.425,-125.2679 687.7479,-116.8729"/>
<polygon fill="#000000" stroke="#000000" points="690.3264,-119.2425 694.8353,-109.6549 685.3316,-114.3381 690.3264,-119.2425"/>
</g>
<!-- 15 -->
<g id="node16" class="node">
<title>15</title>
<polygon fill="none" stroke="#000000" points="826.2146,-73.5 826.2146,-109.5 887.371,-109.5 887.371,-73.5 826.2146,-73.5"/>
<text text-anchor="middle" x="847.0428" y="-87.3" font-family="Times,serif" font-size="14.00" fill="#000000">Item</text>
<polyline fill="none" stroke="#000000" points="867.871,-73.5 867.871,-109.5 "/>
<text text-anchor="middle" x="877.621" y="-87.3" font-family="Times,serif" font-size="14.00" fill="#000000"> </text>
</g>
<!-- 14&#45;&gt;15 -->
<g id="edge8" class="edge">
<title>14:f0-&gt;15</title>
<path fill="none" stroke="#000000" d="M856.7928,-146.5C856.7928,-137.9063 856.7928,-128.5572 856.7928,-120.0461"/>
<polygon fill="#000000" stroke="#000000" points="860.2929,-119.8333 856.7928,-109.8333 853.2929,-119.8334 860.2929,-119.8333"/>
</g>
<!-- 17 -->
<g id="node18" class="node">
<title>17</title>
<polygon fill="none" stroke="#000000" points="962.2146,-73.5 962.2146,-109.5 1023.371,-109.5 1023.371,-73.5 962.2146,-73.5"/>
<text text-anchor="middle" x="983.0428" y="-87.3" font-family="Times,serif" font-size="14.00" fill="#000000">Item</text>
<polyline fill="none" stroke="#000000" points="1003.871,-73.5 1003.871,-109.5 "/>
<text text-anchor="middle" x="1013.621" y="-87.3" font-family="Times,serif" font-size="14.00" fill="#000000"> </text>
</g>
<!-- 14&#45;&gt;17 -->
<g id="edge9" class="edge">
<title>14:f12-&gt;17</title>
<path fill="none" stroke="#000000" d="M891.2447,-146.3501C891.4278,-146.2325 891.6105,-146.1158 891.7928,-146 911.4489,-133.5131 934.2088,-121.0684 953.1416,-111.2299"/>
<polygon fill="#000000" stroke="#000000" points="954.808,-114.3086 962.0981,-106.6207 951.6049,-108.0845 954.808,-114.3086"/>
</g>
<!-- 16 -->
<g id="node17" class="node">
<title>16</title>
<polygon fill="none" stroke="#000000" points="730.0263,-.5 730.0263,-36.5 905.5593,-36.5 905.5593,-.5 730.0263,-.5"/>
<text text-anchor="middle" x="763.6841" y="-14.3" font-family="Times,serif" font-size="14.00" fill="#000000">RawText</text>
<polyline fill="none" stroke="#000000" points="797.3419,-.5 797.3419,-36.5 "/>
<text text-anchor="middle" x="841.7006" y="-14.3" font-family="Times,serif" font-size="14.00" fill="#000000">content: list3</text>
<polyline fill="none" stroke="#000000" points="886.0593,-.5 886.0593,-36.5 "/>
<text text-anchor="middle" x="895.8093" y="-14.3" font-family="Times,serif" font-size="14.00" fill="#000000"> </text>
</g>
<!-- 15&#45;&gt;16 -->
<g id="edge6" class="edge">
<title>15:f0-&gt;16</title>
<path fill="none" stroke="#000000" d="M846.7928,-73.5C846.7928,-63.6701 843.1234,-53.8742 838.3951,-45.3319"/>
<polygon fill="#000000" stroke="#000000" points="841.2255,-43.2557 832.9723,-36.6124 835.2813,-46.9525 841.2255,-43.2557"/>
</g>
<!-- 18 -->
<g id="node19" class="node">
<title>18</title>
<polygon fill="none" stroke="#000000" points="924.0263,-.5 924.0263,-36.5 1099.5593,-36.5 1099.5593,-.5 924.0263,-.5"/>
<text text-anchor="middle" x="957.6841" y="-14.3" font-family="Times,serif" font-size="14.00" fill="#000000">RawText</text>
<polyline fill="none" stroke="#000000" points="991.3419,-.5 991.3419,-36.5 "/>
<text text-anchor="middle" x="1035.7006" y="-14.3" font-family="Times,serif" font-size="14.00" fill="#000000">content: list4</text>
<polyline fill="none" stroke="#000000" points="1080.0593,-.5 1080.0593,-36.5 "/>
<text text-anchor="middle" x="1089.8093" y="-14.3" font-family="Times,serif" font-size="14.00" fill="#000000"> </text>
</g>
<!-- 17&#45;&gt;18 -->
<g id="edge7" class="edge">
<title>17:f0-&gt;18</title>
<path fill="none" stroke="#000000" d="M982.7928,-73.5C982.7928,-63.6701 986.4622,-53.8742 991.1905,-45.3319"/>
<polygon fill="#000000" stroke="#000000" points="994.3043,-46.9525 996.6133,-36.6124 988.3601,-43.2557 994.3043,-46.9525"/>
</g>
</g>
</svg>