<?xml version="1.0" encoding="UTF-8" standalone="no"?><!DOCTYPE svg PUBLIC "-//W3C//DTD SVG 1.1//EN" "http://www.w3.org/Graphics/SVG/1.1/DTD/svg11.dtd"><!-- Generated by graphviz version 2.40.1 (20161225.0304)
 --><!-- Title: g Pages: 1 --><svg xmlns="http://www.w3.org/2000/svg" xmlns:xlink="http://www.w3.org/1999/xlink" width="134pt" height="659pt" viewBox="0.00 0.00 134.00 659.40">
<g id="graph0" class="graph" transform="scale(1 1) rotate(0) translate(4 655.4)">
<title>g</title>
<polygon fill="#ffffff" stroke="transparent" points="-4,4 -4,-655.4 130,-655.4 130,4 -4,4"/>
<g id="clust1" class="cluster">
<title>cluster_0</title>
<polygon fill="none" stroke="#000000" points="33,-8 33,-424.6 103,-424.6 103,-8 33,-8"/>
</g>
<!-- 2 -->
<g id="node1" class="node">
<title>2</title>
<ellipse fill="#ffa500" stroke="#ffa500" cx="68" cy="-34" rx="27" ry="18"/>
<text text-anchor="middle" x="68" y="-29.8" font-family="Times,serif" font-size="14.00" fill="#000000">z</text>
</g>
<!-- 0 -->
<g id="node2" class="node">
<title>0</title>
<polygon fill="#add8e6" stroke="#add8e6" points="95,-178.8 41,-178.8 41,-142.8 95,-142.8 95,-178.8"/>
</g>
<!-- 0&#45;&gt;2 -->
<g id="edge1" class="edge">
<title>0-&gt;2</title>
<path fill="none" stroke="#000000" d="M68,-142.6327C68,-121.6352 68,-86.8261 68,-62.279"/>
<polygon fill="#000000" stroke="#000000" points="71.5001,-62.1336 68,-52.1336 64.5001,-62.1337 71.5001,-62.1336"/>
<text text-anchor="middle" x="75" y="-93.2" font-family="Times,serif" font-size="14.00" fill="#000000">x6</text>
</g>
<!-- 9410137669054546858 -->
<g id="node3" class="node">
<title>9410137669054546858</title>
<ellipse fill="#ffa500" stroke="#ffa500" cx="68" cy="-271.8" rx="27" ry="18"/>
</g>
<!-- 9410137669054546858&#45;&gt;0 -->
<g id="edge2" class="edge">
<title>9410137669054546858-&gt;0</title>
<path fill="none" stroke="#000000" d="M68,-253.4706C68,-236.0373 68,-209.5482 68,-189.3489"/>
<polygon fill="#000000" stroke="#000000" points="71.5001,-189.1566 68,-179.1566 64.5001,-189.1567 71.5001,-189.1566"/>
</g>
<!-- 17152094451422039216 -->
<g id="node4" class="node">
<title>17152094451422039216</title>
<polygon fill="#add8e6" stroke="#add8e6" points="95,-416.6 41,-416.6 41,-380.6 95,-380.6 95,-416.6"/>
</g>
<!-- 17152094451422039216&#45;&gt;9410137669054546858 -->
<g id="edge3" class="edge">
<title>17152094451422039216-&gt;9410137669054546858</title>
<path fill="none" stroke="#000000" d="M68,-380.4327C68,-359.4352 68,-324.6261 68,-300.079"/>
<polygon fill="#000000" stroke="#000000" points="71.5001,-299.9336 68,-289.9336 64.5001,-299.9337 71.5001,-299.9336"/>
<text text-anchor="middle" x="75" y="-331" font-family="Times,serif" font-size="14.00" fill="#000000">x5</text>
</g>
<!-- 10525245307165156232 -->
<g id="node5" class="node">
<title>10525245307165156232</title>
<ellipse fill="#ffa500" stroke="#ffa500" cx="27" cy="-471.6" rx="27" ry="18"/>
</g>
<!-- 10525245307165156232&#45;&gt;17152094451422039216 -->
<g id="edge4" class="edge">
<title>10525245307165156232-&gt;17152094451422039216</title>
<path fill="none" stroke="#000000" d="M36.5093,-454.6688C41.3495,-446.0509 47.3503,-435.3666 52.8111,-425.6437"/>
<polygon fill="#000000" stroke="#000000" points="55.9803,-427.1482 57.8257,-416.7153 49.877,-423.7203 55.9803,-427.1482"/>
</g>
<!-- 15607753973019822475 -->
<g id="node6" class="node">
<title>15607753973019822475</title>
<ellipse fill="#ffa500" stroke="#ffa500" cx="99" cy="-471.6" rx="27" ry="18"/>
</g>
<!-- 15607753973019822475&#45;&gt;17152094451422039216 -->
<g id="edge5" class="edge">
<title>15607753973019822475-&gt;17152094451422039216</title>
<path fill="none" stroke="#000000" d="M91.4958,-453.9287C87.9316,-445.5356 83.5906,-435.3133 79.6143,-425.9499"/>
<polygon fill="#000000" stroke="#000000" points="82.7808,-424.452 75.6505,-416.6157 76.3377,-427.1882 82.7808,-424.452"/>
</g>
<!-- 8 -->
<g id="node7" class="node">
<title>8</title>
<polygon fill="#add8e6" stroke="#add8e6" points="126,-578.4 72,-578.4 72,-542.4 126,-542.4 126,-578.4"/>
</g>
<!-- 8&#45;&gt;15607753973019822475 -->
<g id="edge6" class="edge">
<title>8-&gt;15607753973019822475</title>
<path fill="none" stroke="#000000" d="M99,-542.0006C99,-529.8949 99,-513.8076 99,-500.0674"/>
<polygon fill="#000000" stroke="#000000" points="102.5001,-499.672 99,-489.672 95.5001,-499.6721 102.5001,-499.672"/>
<text text-anchor="middle" x="106" y="-511.8" font-family="Times,serif" font-size="14.00" fill="#000000">x2</text>
</g>
<!-- 7 -->
<g id="node8" class="node">
<title>7</title>
<polygon fill="#add8e6" stroke="#add8e6" points="54,-578.4 0,-578.4 0,-542.4 54,-542.4 54,-578.4"/>
</g>
<!-- 7&#45;&gt;10525245307165156232 -->
<g id="edge7" class="edge">
<title>7-&gt;10525245307165156232</title>
<path fill="none" stroke="#000000" d="M27,-542.0006C27,-529.8949 27,-513.8076 27,-500.0674"/>
<polygon fill="#000000" stroke="#000000" points="30.5001,-499.672 27,-489.672 23.5001,-499.6721 30.5001,-499.672"/>
<text text-anchor="middle" x="34" y="-511.8" font-family="Times,serif" font-size="14.00" fill="#000000">x3</text>
</g>
<!-- 5 -->
<g id="node9" class="node">
<title>5</title>
<ellipse fill="#ffa500" stroke="#ffa500" cx="27" cy="-633.4" rx="27" ry="18"/>
<text text-anchor="middle" x="27" y="-629.2" font-family="Times,serif" font-size="14.00" fill="#000000">v</text>
</g>
<!-- 5&#45;&gt;7 -->
<g id="edge8" class="edge">
<title>5-&gt;7</title>
<path fill="none" stroke="#000000" d="M27,-615.3551C27,-607.2828 27,-597.5764 27,-588.5817"/>
<polygon fill="#000000" stroke="#000000" points="30.5001,-588.4903 27,-578.4904 23.5001,-588.4904 30.5001,-588.4903"/>
</g>
<!-- 6 -->
<g id="node10" class="node">
<title>6</title>
<ellipse fill="#ffa500" stroke="#ffa500" cx="99" cy="-633.4" rx="27" ry="18"/>
<text text-anchor="middle" x="99" y="-629.2" font-family="Times,serif" font-size="14.00" fill="#000000">u</text>
</g>
<!-- 6&#45;&gt;8 -->
<g id="edge9" class="edge">
<title>6-&gt;8</title>
<path fill="none" stroke="#000000" d="M99,-615.3551C99,-607.2828 99,-597.5764 99,-588.5817"/>
<polygon fill="#000000" stroke="#000000" points="102.5001,-588.4903 99,-578.4904 95.5001,-588.4904 102.5001,-588.4903"/>
</g>
</g>
</svg>