<?xml version="1.0" encoding="UTF-8" standalone="no"?><!DOCTYPE svg PUBLIC "-//W3C//DTD SVG 1.1//EN" "http://www.w3.org/Graphics/SVG/1.1/DTD/svg11.dtd"><!-- Generated by graphviz version 2.40.1 (20161225.0304)
 --><!-- Title: g Pages: 1 --><svg xmlns="http://www.w3.org/2000/svg" xmlns:xlink="http://www.w3.org/1999/xlink" width="777pt" height="239pt" viewBox="0.00 0.00 777.00 238.70">
<g id="graph0" class="graph" transform="scale(1 1) rotate(0) translate(4 234.7)">
<title>g</title>
<polygon fill="#ffffff" stroke="transparent" points="-4,4 -4,-234.7 773,-234.7 773,4 -4,4"/>
<g id="clust1" class="cluster">
<title>cluster_0</title>
<polygon fill="none" stroke="#000000" points="278,-56.3933 278,-189.6867 761,-189.6867 761,-56.3933 278,-56.3933"/>
</g>
<!-- 2 -->
<g id="node1" class="node">
<title>2</title>
<ellipse fill="#ffa500" stroke="#ffa500" cx="726" cy="-123.3933" rx="27" ry="18"/>
<text text-anchor="middle" x="726" y="-119.1933" font-family="Times,serif" font-size="14.00" fill="#000000">x</text>
</g>
<!-- 0 -->
<g id="node2" class="node">
<title>0</title>
<polygon fill="#add8e6" stroke="#add8e6" points="611,-141.3933 557,-141.3933 557,-105.3933 611,-105.3933 611,-141.3933"/>
</g>
<!-- 0&#45;&gt;2 -->
<g id="edge1" class="edge">
<title>0-&gt;2</title>
<path fill="none" stroke="#000000" d="M621.3035,-123.3933C645.5403,-123.3933 676.5975,-123.3933 698.5737,-123.3933"/>
<polygon fill="#000000" stroke="#000000" points="621.0434,-119.8934 611.0434,-123.3933 621.0433,-126.8934 621.0434,-119.8934"/>
<text text-anchor="middle" x="655" y="-127.5933" font-family="Times,serif" font-size="14.00" fill="#000000">x6</text>
</g>
<!-- 9410137669054546858 -->
<g id="node3" class="node">
<title>9410137669054546858</title>
<ellipse fill="#ffa500" stroke="#ffa500" cx="455" cy="-123.3933" rx="27" ry="18"/>
</g>
<!-- 9410137669054546858&#45;&gt;0 -->
<g id="edge2" class="edge">
<title>9410137669054546858-&gt;0</title>
<path fill="none" stroke="#000000" d="M492.0934,-123.3933C512.8126,-123.3933 538.1668,-123.3933 556.993,-123.3933"/>
<polygon fill="#000000" stroke="#000000" points="492.0427,-119.8934 482.0426,-123.3933 492.0426,-126.8934 492.0427,-119.8934"/>
</g>
<!-- 17152094451422039216 -->
<g id="node4" class="node">
<title>17152094451422039216</title>
<polygon fill="#add8e6" stroke="#add8e6" points="340,-141.3933 286,-141.3933 286,-105.3933 340,-105.3933 340,-141.3933"/>
</g>
<!-- 17152094451422039216&#45;&gt;9410137669054546858 -->
<g id="edge3" class="edge">
<title>17152094451422039216-&gt;9410137669054546858</title>
<path fill="none" stroke="#000000" d="M350.3035,-123.3933C374.5403,-123.3933 405.5975,-123.3933 427.5737,-123.3933"/>
<polygon fill="#000000" stroke="#000000" points="350.0434,-119.8934 340.0434,-123.3933 350.0433,-126.8934 350.0434,-119.8934"/>
<text text-anchor="middle" x="384" y="-127.5933" font-family="Times,serif" font-size="14.00" fill="#000000">x5</text>
</g>
<!-- 10525245307165156232 -->
<g id="node5" class="node">
<title>10525245307165156232</title>
<ellipse fill="#ffa500" stroke="#ffa500" cx="222" cy="-184.3933" rx="27" ry="18"/>
</g>
<!-- 10525245307165156232&#45;&gt;17152094451422039216 -->
<g id="edge4" class="edge">
<title>10525245307165156232-&gt;17152094451422039216</title>
<path fill="none" stroke="#000000" d="M249.7245,-165.8088C261.2867,-158.0583 274.666,-149.0897 286.1355,-141.4014"/>
<polygon fill="#000000" stroke="#000000" points="247.6564,-162.9815 241.2988,-171.4568 251.554,-168.796 247.6564,-162.9815"/>
</g>
<!-- 15607753973019822475 -->
<g id="node6" class="node">
<title>15607753973019822475</title>
<ellipse fill="#ffa500" stroke="#ffa500" cx="222" cy="-46.3933" rx="27" ry="18"/>
</g>
<!-- 15607753973019822475&#45;&gt;17152094451422039216 -->
<g id="edge5" class="edge">
<title>15607753973019822475-&gt;17152094451422039216</title>
<path fill="none" stroke="#000000" d="M246.9012,-67.4635C260.8578,-79.273 278.0921,-93.8559 291.4631,-105.1698"/>
<polygon fill="#000000" stroke="#000000" points="249.0111,-64.664 239.1164,-60.8764 244.4895,-70.0078 249.0111,-64.664"/>
</g>
<!-- 8 -->
<g id="node7" class="node">
<title>8</title>
<polygon fill="#add8e6" stroke="#add8e6" points="145,-64.3933 91,-64.3933 91,-28.3933 145,-28.3933 145,-64.3933"/>
</g>
<!-- 8&#45;&gt;15607753973019822475 -->
<g id="edge6" class="edge">
<title>8-&gt;15607753973019822475</title>
<path fill="none" stroke="#000000" d="M155.1599,-46.3933C168.2137,-46.3933 182.6294,-46.3933 194.7209,-46.3933"/>
<polygon fill="#000000" stroke="#000000" points="155.0533,-42.8934 145.0533,-46.3933 155.0533,-49.8934 155.0533,-42.8934"/>
<text text-anchor="middle" x="170" y="-50.5933" font-family="Times,serif" font-size="14.00" fill="#000000">x2</text>
</g>
<!-- 7 -->
<g id="node8" class="node">
<title>7</title>
<polygon fill="#add8e6" stroke="#add8e6" points="145,-202.3933 91,-202.3933 91,-166.3933 145,-166.3933 145,-202.3933"/>
</g>
<!-- 7&#45;&gt;10525245307165156232 -->
<g id="edge7" class="edge">
<title>7-&gt;10525245307165156232</title>
<path fill="none" stroke="#000000" d="M155.1599,-184.3933C168.2137,-184.3933 182.6294,-184.3933 194.7209,-184.3933"/>
<polygon fill="#000000" stroke="#000000" points="155.0533,-180.8934 145.0533,-184.3933 155.0533,-187.8934 155.0533,-180.8934"/>
<text text-anchor="middle" x="170" y="-188.5933" font-family="Times,serif" font-size="14.00" fill="#000000">x3</text>
</g>
<!-- 5 -->
<g id="node9" class="node">
<title>5</title>
<ellipse fill="#ffa500" stroke="#ffa500" cx="27" cy="-184.3933" rx="27" ry="18"/>
<text text-anchor="middle" x="27" y="-180.1933" font-family="Times,serif" font-size="14.00" fill="#000000">y</text>
</g>
<!-- 5&#45;&gt;7 -->
<g id="edge8" class="edge">
<title>5-&gt;7</title>
<path fill="none" stroke="#000000" d="M64.38,-184.3933C73.1994,-184.3933 82.4395,-184.3933 90.7163,-184.3933"/>
<polygon fill="#000000" stroke="#000000" points="64.303,-180.8934 54.303,-184.3933 64.303,-187.8934 64.303,-180.8934"/>
</g>
<!-- 6 -->
<g id="node10" class="node">
<title>6</title>
<ellipse fill="#ffa500" stroke="#ffa500" cx="27" cy="-46.3933" rx="27" ry="18"/>
<text text-anchor="middle" x="27" y="-42.1933" font-family="Times,serif" font-size="14.00" fill="#000000">z</text>
</g>
<!-- 6&#45;&gt;8 -->
<g id="edge9" class="edge">
<title>6-&gt;8</title>
<path fill="none" stroke="#000000" d="M64.38,-46.3933C73.1994,-46.3933 82.4395,-46.3933 90.7163,-46.3933"/>
<polygon fill="#000000" stroke="#000000" points="64.303,-42.8934 54.303,-46.3933 64.303,-49.8934 64.303,-42.8934"/>
</g>
</g>
</svg>