<?xml version="1.0" encoding="UTF-8" standalone="no"?><!DOCTYPE svg PUBLIC "-//W3C//DTD SVG 1.1//EN" "http://www.w3.org/Graphics/SVG/1.1/DTD/svg11.dtd"><!-- Generated by graphviz version 2.40.1 (20161225.0304)
 --><!-- Title: g Pages: 1 --><svg xmlns="http://www.w3.org/2000/svg" xmlns:xlink="http://www.w3.org/1999/xlink" width="134pt" height="577pt" viewBox="0.00 0.00 134.00 576.80">
<g id="graph0" class="graph" transform="scale(1 1) rotate(0) translate(4 572.8)">
<title>g</title>
<polygon fill="#ffffff" stroke="transparent" points="-4,4 -4,-572.8 130,-572.8 130,4 -4,4"/>
<!-- 4 -->
<g id="node1" class="node">
<title>4</title>
<ellipse fill="#ffa500" stroke="#ffa500" cx="27" cy="-18" rx="27" ry="18"/>
</g>
<!-- 3 -->
<g id="node2" class="node">
<title>3</title>
<ellipse fill="#ffa500" stroke="#ffa500" cx="99" cy="-18" rx="27" ry="18"/>
</g>
<!-- 2 -->
<g id="node3" class="node">
<title>2</title>
<ellipse fill="#ffa500" stroke="#ffa500" cx="27" cy="-106.8" rx="27" ry="18"/>
</g>
<!-- 2&#45;&gt;4 -->
<g id="edge1" class="edge">
<title>2-&gt;4</title>
<path fill="none" stroke="#000000" d="M27,-88.4006C27,-76.2949 27,-60.2076 27,-46.4674"/>
<polygon fill="#000000" stroke="#000000" points="30.5001,-46.072 27,-36.072 23.5001,-46.0721 30.5001,-46.072"/>
<text text-anchor="middle" x="34" y="-58.2" font-family="Times,serif" font-size="14.00" fill="#000000">x4</text>
</g>
<!-- 1 -->
<g id="node4" class="node">
<title>1</title>
<ellipse fill="#ffa500" stroke="#ffa500" cx="99" cy="-106.8" rx="27" ry="18"/>
</g>
<!-- 1&#45;&gt;3 -->
<g id="edge2" class="edge">
<title>1-&gt;3</title>
<path fill="none" stroke="#000000" d="M99,-88.4006C99,-76.2949 99,-60.2076 99,-46.4674"/>
<polygon fill="#000000" stroke="#000000" points="102.5001,-46.072 99,-36.072 95.5001,-46.0721 102.5001,-46.072"/>
<text text-anchor="middle" x="106" y="-58.2" font-family="Times,serif" font-size="14.00" fill="#000000">x3</text>
</g>
<!-- 0 -->
<g id="node5" class="node">
<title>0</title>
<polygon fill="#add8e6" stroke="#add8e6" points="89,-213.6 35,-213.6 35,-177.6 89,-177.6 89,-213.6"/>
</g>
<!-- 0&#45;&gt;2 -->
<g id="edge3" class="edge">
<title>0-&gt;2</title>
<path fill="none" stroke="#000000" d="M54.748,-177.2006C49.8177,-164.6917 43.2117,-147.9315 37.6822,-133.9024"/>
<polygon fill="#000000" stroke="#000000" points="40.8087,-132.2895 33.8855,-124.2695 34.2963,-134.8564 40.8087,-132.2895"/>
<text text-anchor="middle" x="55" y="-147" font-family="Times,serif" font-size="14.00" fill="#000000">x6</text>
</g>
<!-- 0&#45;&gt;1 -->
<g id="edge4" class="edge">
<title>0-&gt;1</title>
<path fill="none" stroke="#000000" d="M69.6664,-177.2006C74.8785,-164.6917 81.8619,-147.9315 87.7073,-133.9024"/>
<polygon fill="#000000" stroke="#000000" points="91.1056,-134.8465 91.721,-124.2695 84.6441,-132.1541 91.1056,-134.8465"/>
<text text-anchor="middle" x="90" y="-147" font-family="Times,serif" font-size="14.00" fill="#000000">x8</text>
</g>
<!-- 9410137669054546858 -->
<g id="node6" class="node">
<title>9410137669054546858</title>
<ellipse fill="#ffa500" stroke="#ffa500" cx="62" cy="-284.4" rx="27" ry="18"/>
</g>
<!-- 9410137669054546858&#45;&gt;0 -->
<g id="edge5" class="edge">
<title>9410137669054546858-&gt;0</title>
<path fill="none" stroke="#000000" d="M62,-266.0006C62,-253.8949 62,-237.8076 62,-224.0674"/>
<polygon fill="#000000" stroke="#000000" points="65.5001,-223.672 62,-213.672 58.5001,-223.6721 65.5001,-223.672"/>
<text text-anchor="middle" x="69" y="-235.8" font-family="Times,serif" font-size="14.00" fill="#000000">x2</text>
</g>
<!-- 17152094451422039216 -->
<g id="node7" class="node">
<title>17152094451422039216</title>
<polygon fill="#add8e6" stroke="#add8e6" points="89,-391.2 35,-391.2 35,-355.2 89,-355.2 89,-391.2"/>
</g>
<!-- 17152094451422039216&#45;&gt;9410137669054546858 -->
<g id="edge8" class="edge">
<title>17152094451422039216-&gt;9410137669054546858</title>
<path fill="none" stroke="#000000" d="M62,-354.8006C62,-342.6949 62,-326.6076 62,-312.8674"/>
<polygon fill="#000000" stroke="#000000" points="65.5001,-312.472 62,-302.472 58.5001,-312.4721 65.5001,-312.472"/>
<text text-anchor="middle" x="69" y="-324.6" font-family="Times,serif" font-size="14.00" fill="#000000">x5</text>
</g>
<!-- 10525245307165156232 -->
<g id="node8" class="node">
<title>10525245307165156232</title>
<ellipse fill="#ffa500" stroke="#ffa500" cx="27" cy="-462" rx="27" ry="18"/>
</g>
<!-- 10525245307165156232&#45;&gt;17152094451422039216 -->
<g id="edge6" class="edge">
<title>10525245307165156232-&gt;17152094451422039216</title>
<path fill="none" stroke="#000000" d="M33.9149,-444.456C38.8356,-431.9714 45.5449,-414.949 51.1718,-400.6726"/>
<polygon fill="#000000" stroke="#000000" points="54.4484,-401.9041 54.8592,-391.3172 47.936,-399.3372 54.4484,-401.9041"/>
<text text-anchor="middle" x="55" y="-413.4" font-family="Times,serif" font-size="14.00" fill="#000000">x6</text>
</g>
<!-- 15607753973019822475 -->
<g id="node9" class="node">
<title>15607753973019822475</title>
<ellipse fill="#ffa500" stroke="#ffa500" cx="99" cy="-462" rx="27" ry="18"/>
</g>
<!-- 15607753973019822475&#45;&gt;17152094451422039216 -->
<g id="edge7" class="edge">
<title>15607753973019822475-&gt;17152094451422039216</title>
<path fill="none" stroke="#000000" d="M91.69,-444.456C86.4881,-431.9714 79.3954,-414.949 73.4469,-400.6726"/>
<polygon fill="#000000" stroke="#000000" points="76.6258,-399.2018 69.5488,-391.3172 70.1643,-401.8942 76.6258,-399.2018"/>
<text text-anchor="middle" x="90" y="-413.4" font-family="Times,serif" font-size="14.00" fill="#000000">x1</text>
</g>
<!-- 5 -->
<g id="node10" class="node">
<title>5</title>
<ellipse fill="#ffa500" stroke="#ffa500" cx="99" cy="-550.8" rx="27" ry="18"/>
</g>
<!-- 5&#45;&gt;15607753973019822475 -->
<g id="edge9" class="edge">
<title>5-&gt;15607753973019822475</title>
<path fill="none" stroke="#000000" d="M99,-532.4006C99,-520.2949 99,-504.2076 99,-490.4674"/>
<polygon fill="#000000" stroke="#000000" points="102.5001,-490.072 99,-480.072 95.5001,-490.0721 102.5001,-490.072"/>
<text text-anchor="middle" x="106" y="-502.2" font-family="Times,serif" font-size="14.00" fill="#000000">x2</text>
</g>
<!-- 6 -->
<g id="node11" class="node">
<title>6</title>
<ellipse fill="#ffa500" stroke="#ffa500" cx="27" cy="-550.8" rx="27" ry="18"/>
</g>
<!-- 6&#45;&gt;10525245307165156232 -->
<g id="edge10" class="edge">
<title>6-&gt;10525245307165156232</title>
<path fill="none" stroke="#000000" d="M27,-532.4006C27,-520.2949 27,-504.2076 27,-490.4674"/>
<polygon fill="#000000" stroke="#000000" points="30.5001,-490.072 27,-480.072 23.5001,-490.0721 30.5001,-490.072"/>
<text text-anchor="middle" x="34" y="-502.2" font-family="Times,serif" font-size="14.00" fill="#000000">x3</text>
</g>
</g>
</svg>