<?xml version="1.0" encoding="UTF-8" standalone="no"?><!DOCTYPE svg PUBLIC "-//W3C//DTD SVG 1.1//EN" "http://www.w3.org/Graphics/SVG/1.1/DTD/svg11.dtd"><!-- Generated by graphviz version 2.40.1 (20161225.0304)
 --><!-- Title: g Pages: 1 --><svg xmlns="http://www.w3.org/2000/svg" xmlns:xlink="http://www.w3.org/1999/xlink" width="134pt" height="529pt" viewBox="0.00 0.00 134.00 529.40">
<g id="graph0" class="graph" transform="scale(1 1) rotate(0) translate(4 525.4)">
<title>g</title>
<polygon fill="#ffffff" stroke="transparent" points="-4,4 -4,-525.4 130,-525.4 130,4 -4,4"/>
<!-- 2 -->
<g id="node1" class="node">
<title>2</title>
<ellipse fill="#ffa500" stroke="#ffa500" cx="62" cy="-18" rx="27" ry="18"/>
<text text-anchor="middle" x="62" y="-13.8" font-family="Times,serif" font-size="14.00" fill="#000000">z</text>
</g>
<!-- 0 -->
<g id="node2" class="node">
<title>0</title>
<polygon fill="#add8e6" stroke="#add8e6" points="89,-124.8 35,-124.8 35,-88.8 89,-88.8 89,-124.8"/>
</g>
<!-- 0&#45;&gt;2 -->
<g id="edge1" class="edge">
<title>0-&gt;2</title>
<path fill="none" stroke="#000000" d="M62,-88.4006C62,-76.2949 62,-60.2076 62,-46.4674"/>
<polygon fill="#000000" stroke="#000000" points="65.5001,-46.072 62,-36.072 58.5001,-46.0721 65.5001,-46.072"/>
<text text-anchor="middle" x="69" y="-58.2" font-family="Times,serif" font-size="14.00" fill="#000000">x6</text>
</g>
<!-- 9410137669054546858 -->
<g id="node3" class="node">
<title>9410137669054546858</title>
<ellipse fill="#ffa500" stroke="#ffa500" cx="62" cy="-179.8" rx="27" ry="18"/>
</g>
<!-- 9410137669054546858&#45;&gt;0 -->
<g id="edge2" class="edge">
<title>9410137669054546858-&gt;0</title>
<path fill="none" stroke="#000000" d="M62,-161.7551C62,-153.6828 62,-143.9764 62,-134.9817"/>
<polygon fill="#000000" stroke="#000000" points="65.5001,-134.8903 62,-124.8904 58.5001,-134.8904 65.5001,-134.8903"/>
</g>
<!-- 17152094451422039216 -->
<g id="node4" class="node">
<title>17152094451422039216</title>
<polygon fill="#add8e6" stroke="#add8e6" points="89,-286.6 35,-286.6 35,-250.6 89,-250.6 89,-286.6"/>
</g>
<!-- 17152094451422039216&#45;&gt;9410137669054546858 -->
<g id="edge5" class="edge">
<title>17152094451422039216-&gt;9410137669054546858</title>
<path fill="none" stroke="#000000" d="M62,-250.2006C62,-238.0949 62,-222.0076 62,-208.2674"/>
<polygon fill="#000000" stroke="#000000" points="65.5001,-207.872 62,-197.872 58.5001,-207.8721 65.5001,-207.872"/>
<text text-anchor="middle" x="69" y="-220" font-family="Times,serif" font-size="14.00" fill="#000000">x5</text>
</g>
<!-- 10525245307165156232 -->
<g id="node5" class="node">
<title>10525245307165156232</title>
<ellipse fill="#ffa500" stroke="#ffa500" cx="27" cy="-341.6" rx="27" ry="18"/>
</g>
<!-- 10525245307165156232&#45;&gt;17152094451422039216 -->
<g id="edge3" class="edge">
<title>10525245307165156232-&gt;17152094451422039216</title>
<path fill="none" stroke="#000000" d="M35.2945,-324.3C39.3577,-315.8254 44.3464,-305.4203 48.9078,-295.9066"/>
<polygon fill="#000000" stroke="#000000" points="52.1093,-297.3248 53.2766,-286.7945 45.7973,-294.2985 52.1093,-297.3248"/>
</g>
<!-- 15607753973019822475 -->
<g id="node6" class="node">
<title>15607753973019822475</title>
<ellipse fill="#ffa500" stroke="#ffa500" cx="99" cy="-341.6" rx="27" ry="18"/>
</g>
<!-- 15607753973019822475&#45;&gt;17152094451422039216 -->
<g id="edge4" class="edge">
<title>15607753973019822475-&gt;17152094451422039216</title>
<path fill="none" stroke="#000000" d="M90.2315,-324.3C85.9362,-315.8254 80.6624,-305.4203 75.8403,-295.9066"/>
<polygon fill="#000000" stroke="#000000" points="78.8648,-294.1319 71.2219,-286.7945 72.621,-297.2966 78.8648,-294.1319"/>
</g>
<!-- 8 -->
<g id="node7" class="node">
<title>8</title>
<polygon fill="#add8e6" stroke="#add8e6" points="126,-448.4 72,-448.4 72,-412.4 126,-412.4 126,-448.4"/>
</g>
<!-- 8&#45;&gt;15607753973019822475 -->
<g id="edge6" class="edge">
<title>8-&gt;15607753973019822475</title>
<path fill="none" stroke="#000000" d="M99,-412.0006C99,-399.8949 99,-383.8076 99,-370.0674"/>
<polygon fill="#000000" stroke="#000000" points="102.5001,-369.672 99,-359.672 95.5001,-369.6721 102.5001,-369.672"/>
<text text-anchor="middle" x="106" y="-381.8" font-family="Times,serif" font-size="14.00" fill="#000000">x2</text>
</g>
<!-- 7 -->
<g id="node8" class="node">
<title>7</title>
<polygon fill="#add8e6" stroke="#add8e6" points="54,-448.4 0,-448.4 0,-412.4 54,-412.4 54,-448.4"/>
</g>
<!-- 7&#45;&gt;10525245307165156232 -->
<g id="edge7" class="edge">
<title>7-&gt;10525245307165156232</title>
<path fill="none" stroke="#000000" d="M27,-412.0006C27,-399.8949 27,-383.8076 27,-370.0674"/>
<polygon fill="#000000" stroke="#000000" points="30.5001,-369.672 27,-359.672 23.5001,-369.6721 30.5001,-369.672"/>
<text text-anchor="middle" x="34" y="-381.8" font-family="Times,serif" font-size="14.00" fill="#000000">x3</text>
</g>
<!-- 5 -->
<g id="node9" class="node">
<title>5</title>
<ellipse fill="#ffa500" stroke="#ffa500" cx="27" cy="-503.4" rx="27" ry="18"/>
<text text-anchor="middle" x="27" y="-499.2" font-family="Times,serif" font-size="14.00" fill="#000000">v</text>
</g>
<!-- 5&#45;&gt;7 -->
<g id="edge8" class="edge">
<title>5-&gt;7</title>
<path fill="none" stroke="#000000" d="M27,-485.3551C27,-477.2828 27,-467.5764 27,-458.5817"/>
<polygon fill="#000000" stroke="#000000" points="30.5001,-458.4903 27,-448.4904 23.5001,-458.4904 30.5001,-458.4903"/>
</g>
<!-- 6 -->
<g id="node10" class="node">
<title>6</title>
<ellipse fill="#ffa500" stroke="#ffa500" cx="99" cy="-503.4" rx="27" ry="18"/>
<text text-anchor="middle" x="99" y="-499.2" font-family="Times,serif" font-size="14.00" fill="#000000">u</text>
</g>
<!-- 6&#45;&gt;8 -->
<g id="edge9" class="edge">
<title>6-&gt;8</title>
<path fill="none" stroke="#000000" d="M99,-485.3551C99,-477.2828 99,-467.5764 99,-458.5817"/>
<polygon fill="#000000" stroke="#000000" points="102.5001,-458.4903 99,-448.4904 95.5001,-458.4904 102.5001,-458.4903"/>
</g>
</g>
</svg>