<?xml version="1.0" encoding="UTF-8" standalone="no"?><!DOCTYPE svg PUBLIC "-//W3C//DTD SVG 1.1//EN" "http://www.w3.org/Graphics/SVG/1.1/DTD/svg11.dtd"><!-- Generated by graphviz version 2.40.1 (20161225.0304)
 --><!-- Title: g Pages: 1 --><svg xmlns="http://www.w3.org/2000/svg" xmlns:xlink="http://www.w3.org/1999/xlink" width="150pt" height="859pt" viewBox="0.00 0.00 150.00 859.40">
<g id="graph0" class="graph" transform="scale(1 1) rotate(0) translate(4 855.4)">
<title>g</title>
<polygon fill="#ffffff" stroke="transparent" points="-4,4 -4,-855.4 146,-855.4 146,4 -4,4"/>
<g id="clust1" class="cluster">
<title>cluster_0</title>
<polygon fill="none" stroke="#000000" points="8,-8 8,-843.4 78,-843.4 78,-8 8,-8"/>
</g>
<!-- 2 -->
<g id="node1" class="node">
<title>2</title>
<ellipse fill="#ffa500" stroke="#ffa500" cx="43" cy="-34" rx="27" ry="18"/>
<text text-anchor="middle" x="43" y="-29.8" font-family="Times,serif" font-size="14.00" fill="#000000">z</text>
</g>
<!-- 0 -->
<g id="node2" class="node">
<title>0</title>
<polygon fill="#add8e6" stroke="#add8e6" points="70,-178.8 16,-178.8 16,-142.8 70,-142.8 70,-178.8"/>
</g>
<!-- 0&#45;&gt;2 -->
<g id="edge1" class="edge">
<title>0-&gt;2</title>
<path fill="none" stroke="#000000" d="M43,-142.6327C43,-121.6352 43,-86.8261 43,-62.279"/>
<polygon fill="#000000" stroke="#000000" points="46.5001,-62.1336 43,-52.1336 39.5001,-62.1337 46.5001,-62.1336"/>
<text text-anchor="middle" x="50" y="-93.2" font-family="Times,serif" font-size="14.00" fill="#000000">x6</text>
</g>
<!-- 9410137669054546858 -->
<g id="node3" class="node">
<title>9410137669054546858</title>
<ellipse fill="#ffa500" stroke="#ffa500" cx="43" cy="-271.8" rx="27" ry="18"/>
</g>
<!-- 9410137669054546858&#45;&gt;0 -->
<g id="edge2" class="edge">
<title>9410137669054546858-&gt;0</title>
<path fill="none" stroke="#000000" d="M43,-253.4706C43,-236.0373 43,-209.5482 43,-189.3489"/>
<polygon fill="#000000" stroke="#000000" points="46.5001,-189.1566 43,-179.1566 39.5001,-189.1567 46.5001,-189.1566"/>
</g>
<!-- 17152094451422039216 -->
<g id="node4" class="node">
<title>17152094451422039216</title>
<polygon fill="#add8e6" stroke="#add8e6" points="70,-416.6 16,-416.6 16,-380.6 70,-380.6 70,-416.6"/>
</g>
<!-- 17152094451422039216&#45;&gt;9410137669054546858 -->
<g id="edge3" class="edge">
<title>17152094451422039216-&gt;9410137669054546858</title>
<path fill="none" stroke="#000000" d="M43,-380.4327C43,-359.4352 43,-324.6261 43,-300.079"/>
<polygon fill="#000000" stroke="#000000" points="46.5001,-299.9336 43,-289.9336 39.5001,-299.9337 46.5001,-299.9336"/>
<text text-anchor="middle" x="50" y="-331" font-family="Times,serif" font-size="14.00" fill="#000000">x5</text>
</g>
<!-- 8 -->
<g id="node5" class="node">
<title>8</title>
<polygon fill="#add8e6" stroke="#add8e6" points="70,-724.4 16,-724.4 16,-688.4 70,-688.4 70,-724.4"/>
</g>
<!-- 15607753973019822475 -->
<g id="node6" class="node">
<title>15607753973019822475</title>
<ellipse fill="#ffa500" stroke="#ffa500" cx="43" cy="-560.4" rx="27" ry="18"/>
</g>
<!-- 8&#45;&gt;15607753973019822475 -->
<g id="edge4" class="edge">
<title>8-&gt;15607753973019822475</title>
<path fill="none" stroke="#000000" d="M43,-688.2042C43,-663.2868 43,-618.2938 43,-588.8877"/>
<polygon fill="#000000" stroke="#000000" points="46.5001,-588.8251 43,-578.8251 39.5001,-588.8251 46.5001,-588.8251"/>
<text text-anchor="middle" x="50" y="-629.2" font-family="Times,serif" font-size="14.00" fill="#000000">x2</text>
</g>
<!-- 15607753973019822475&#45;&gt;17152094451422039216 -->
<g id="edge7" class="edge">
<title>15607753973019822475-&gt;17152094451422039216</title>
<path fill="none" stroke="#000000" d="M43,-542.154C43,-514.2351 43,-460.6651 43,-427.4464"/>
<polygon fill="#000000" stroke="#000000" points="46.5001,-427.0275 43,-417.0276 39.5001,-427.0276 46.5001,-427.0275"/>
</g>
<!-- 6 -->
<g id="node7" class="node">
<title>6</title>
<ellipse fill="#ffa500" stroke="#ffa500" cx="43" cy="-817.4" rx="27" ry="18"/>
<text text-anchor="middle" x="43" y="-813.2" font-family="Times,serif" font-size="14.00" fill="#000000">u</text>
</g>
<!-- 6&#45;&gt;8 -->
<g id="edge5" class="edge">
<title>6-&gt;8</title>
<path fill="none" stroke="#000000" d="M43,-799.0706C43,-781.6373 43,-755.1482 43,-734.9489"/>
<polygon fill="#000000" stroke="#000000" points="46.5001,-734.7566 43,-724.7566 39.5001,-734.7567 46.5001,-734.7566"/>
</g>
<!-- 10525245307165156232 -->
<g id="node8" class="node">
<title>10525245307165156232</title>
<ellipse fill="#ffa500" stroke="#ffa500" cx="114" cy="-471.6" rx="27" ry="18"/>
</g>
<!-- 10525245307165156232&#45;&gt;17152094451422039216 -->
<g id="edge6" class="edge">
<title>10525245307165156232-&gt;17152094451422039216</title>
<path fill="none" stroke="#000000" d="M99.2888,-456.4744C90.1802,-447.1092 78.2524,-434.8455 67.7224,-424.0188"/>
<polygon fill="#000000" stroke="#000000" points="70.1887,-421.5346 60.7074,-416.8062 65.1706,-426.4151 70.1887,-421.5346"/>
</g>
<!-- 7 -->
<g id="node9" class="node">
<title>7</title>
<polygon fill="#add8e6" stroke="#add8e6" points="142,-578.4 88,-578.4 88,-542.4 142,-542.4 142,-578.4"/>
</g>
<!-- 7&#45;&gt;10525245307165156232 -->
<g id="edge8" class="edge">
<title>7-&gt;10525245307165156232</title>
<path fill="none" stroke="#000000" d="M114.7928,-542.0006C114.6565,-529.8949 114.4753,-513.8076 114.3206,-500.0674"/>
<polygon fill="#000000" stroke="#000000" points="117.816,-499.6319 114.2035,-489.672 110.8164,-499.7108 117.816,-499.6319"/>
<text text-anchor="middle" x="121" y="-511.8" font-family="Times,serif" font-size="14.00" fill="#000000">x3</text>
</g>
<!-- 5 -->
<g id="node10" class="node">
<title>5</title>
<ellipse fill="#ffa500" stroke="#ffa500" cx="115" cy="-633.4" rx="27" ry="18"/>
<text text-anchor="middle" x="115" y="-629.2" font-family="Times,serif" font-size="14.00" fill="#000000">v</text>
</g>
<!-- 5&#45;&gt;7 -->
<g id="edge9" class="edge">
<title>5-&gt;7</title>
<path fill="none" stroke="#000000" d="M115,-615.3551C115,-607.2828 115,-597.5764 115,-588.5817"/>
<polygon fill="#000000" stroke="#000000" points="118.5001,-588.4903 115,-578.4904 111.5001,-588.4904 118.5001,-588.4903"/>
</g>
</g>
</svg>