<?xml version="1.0" encoding="UTF-8" standalone="no"?><!DOCTYPE svg PUBLIC "-//W3C//DTD SVG 1.1//EN" "http://www.w3.org/Graphics/SVG/1.1/DTD/svg11.dtd"><!-- Generated by graphviz version 2.40.1 (20161225.0304)
 --><!-- Title: g Pages: 1 --><svg xmlns="http://www.w3.org/2000/svg" xmlns:xlink="http://www.w3.org/1999/xlink" width="777pt" height="239pt" viewBox="0.00 0.00 777.00 238.70">
<g id="graph0" class="graph" transform="scale(1 1) rotate(0) translate(4 234.7)">
<title>g</title>
<polygon fill="#ffffff" stroke="transparent" points="-4,4 -4,-234.7 773,-234.7 773,4 -4,4"/>
<g id="clust1" class="cluster">
<title>cluster_0</title>
<polygon fill="none" stroke="#000000" points="278,-56.3933 278,-189.6867 761,-189.6867 761,-56.3933 278,-56.3933"/>
</g>
<!-- 2 -->
<g id="node1" class="node">
<title>2</title>
<ellipse fill="#ffa500" stroke="#ffa500" cx="726" cy="-123.3933" rx="27" ry="18"/>
<text text-anchor="middle" x="726" y="-119.1933" font-family="Times,serif" font-size="14.00" fill="#000000">1</text>
</g>
<!-- 0 -->
<g id="node2" class="node">
<title>0</title>
<polygon fill="#add8e6" stroke="#add8e6" points="611,-141.3933 557,-141.3933 557,-105.3933 611,-105.3933 611,-141.3933"/>
</g>
<!-- 0&#45;&gt;2 -->
<g id="edge1" class="edge">
<title>0-&gt;2</title>
<path fill="none" stroke="#000000" d="M611.0434,-123.3933C632.9133,-123.3933 663.9567,-123.3933 688.2723,-123.3933"/>
<polygon fill="#000000" stroke="#000000" points="688.5737,-126.8934 698.5737,-123.3933 688.5736,-119.8934 688.5737,-126.8934"/>
<text text-anchor="middle" x="655" y="-127.5933" font-family="Times,serif" font-size="14.00" fill="#000000">x6</text>
</g>
<!-- 9410137669054546858 -->
<g id="node3" class="node">
<title>9410137669054546858</title>
<ellipse fill="#ffa500" stroke="#ffa500" cx="455" cy="-123.3933" rx="27" ry="18"/>
<text text-anchor="middle" x="455" y="-119.1933" font-family="Times,serif" font-size="14.00" fill="#000000">6</text>
</g>
<!-- 9410137669054546858&#45;&gt;0 -->
<g id="edge2" class="edge">
<title>9410137669054546858-&gt;0</title>
<path fill="none" stroke="#000000" d="M482.0426,-123.3933C500.877,-123.3933 526.2324,-123.3933 546.9458,-123.3933"/>
<polygon fill="#000000" stroke="#000000" points="546.993,-126.8934 556.993,-123.3933 546.9929,-119.8934 546.993,-126.8934"/>
</g>
<!-- 17152094451422039216 -->
<g id="node4" class="node">
<title>17152094451422039216</title>
<polygon fill="#add8e6" stroke="#add8e6" points="340,-141.3933 286,-141.3933 286,-105.3933 340,-105.3933 340,-141.3933"/>
</g>
<!-- 17152094451422039216&#45;&gt;9410137669054546858 -->
<g id="edge3" class="edge">
<title>17152094451422039216-&gt;9410137669054546858</title>
<path fill="none" stroke="#000000" d="M340.0434,-123.3933C361.9133,-123.3933 392.9567,-123.3933 417.2723,-123.3933"/>
<polygon fill="#000000" stroke="#000000" points="417.5737,-126.8934 427.5737,-123.3933 417.5736,-119.8934 417.5737,-126.8934"/>
<text text-anchor="middle" x="384" y="-127.5933" font-family="Times,serif" font-size="14.00" fill="#000000">x5</text>
</g>
<!-- 10525245307165156232 -->
<g id="node5" class="node">
<title>10525245307165156232</title>
<ellipse fill="#ffa500" stroke="#ffa500" cx="222" cy="-184.3933" rx="27" ry="18"/>
<text text-anchor="middle" x="222" y="-180.1933" font-family="Times,serif" font-size="14.00" fill="#000000">30</text>
</g>
<!-- 10525245307165156232&#45;&gt;17152094451422039216 -->
<g id="edge4" class="edge">
<title>10525245307165156232-&gt;17152094451422039216</title>
<path fill="none" stroke="#000000" d="M241.2988,-171.4568C251.8963,-164.353 265.3704,-155.3209 277.7707,-147.0086"/>
<polygon fill="#000000" stroke="#000000" points="279.7778,-149.8768 286.1355,-141.4014 275.8802,-144.0623 279.7778,-149.8768"/>
</g>
<!-- 15607753973019822475 -->
<g id="node6" class="node">
<title>15607753973019822475</title>
<ellipse fill="#ffa500" stroke="#ffa500" cx="222" cy="-46.3933" rx="27" ry="18"/>
<text text-anchor="middle" x="222" y="-42.1933" font-family="Times,serif" font-size="14.00" fill="#000000">30</text>
</g>
<!-- 15607753973019822475&#45;&gt;17152094451422039216 -->
<g id="edge5" class="edge">
<title>15607753973019822475-&gt;17152094451422039216</title>
<path fill="none" stroke="#000000" d="M239.1164,-60.8764C251.6273,-71.4626 268.9052,-86.0824 283.6071,-98.5224"/>
<polygon fill="#000000" stroke="#000000" points="281.5684,-101.3822 291.4631,-105.1698 286.09,-96.0385 281.5684,-101.3822"/>
</g>
<!-- 8 -->
<g id="node7" class="node">
<title>8</title>
<polygon fill="#add8e6" stroke="#add8e6" points="145,-64.3933 91,-64.3933 91,-28.3933 145,-28.3933 145,-64.3933"/>
</g>
<!-- 8&#45;&gt;15607753973019822475 -->
<g id="edge6" class="edge">
<title>8-&gt;15607753973019822475</title>
<path fill="none" stroke="#000000" d="M145.0533,-46.3933C157.1157,-46.3933 171.5252,-46.3933 184.5959,-46.3933"/>
<polygon fill="#000000" stroke="#000000" points="184.7209,-49.8934 194.7209,-46.3933 184.7208,-42.8934 184.7209,-49.8934"/>
<text text-anchor="middle" x="170" y="-50.5933" font-family="Times,serif" font-size="14.00" fill="#000000">x2</text>
</g>
<!-- 7 -->
<g id="node8" class="node">
<title>7</title>
<polygon fill="#add8e6" stroke="#add8e6" points="145,-202.3933 91,-202.3933 91,-166.3933 145,-166.3933 145,-202.3933"/>
</g>
<!-- 7&#45;&gt;10525245307165156232 -->
<g id="edge7" class="edge">
<title>7-&gt;10525245307165156232</title>
<path fill="none" stroke="#000000" d="M145.0533,-184.3933C157.1157,-184.3933 171.5252,-184.3933 184.5959,-184.3933"/>
<polygon fill="#000000" stroke="#000000" points="184.7209,-187.8934 194.7209,-184.3933 184.7208,-180.8934 184.7209,-187.8934"/>
<text text-anchor="middle" x="170" y="-188.5933" font-family="Times,serif" font-size="14.00" fill="#000000">x3</text>
</g>
<!-- 5 -->
<g id="node9" class="node">
<title>5</title>
<ellipse fill="#ffa500" stroke="#ffa500" cx="27" cy="-184.3933" rx="27" ry="18"/>
<text text-anchor="middle" x="27" y="-180.1933" font-family="Times,serif" font-size="14.00" fill="#000000">v</text>
</g>
<!-- 5&#45;&gt;7 -->
<g id="edge8" class="edge">
<title>5-&gt;7</title>
<path fill="none" stroke="#000000" d="M54.303,-184.3933C62.5813,-184.3933 71.8217,-184.3933 80.6405,-184.3933"/>
<polygon fill="#000000" stroke="#000000" points="80.7163,-187.8934 90.7163,-184.3933 80.7162,-180.8934 80.7163,-187.8934"/>
</g>
<!-- 6 -->
<g id="node10" class="node">
<title>6</title>
<ellipse fill="#ffa500" stroke="#ffa500" cx="27" cy="-46.3933" rx="27" ry="18"/>
<text text-anchor="middle" x="27" y="-42.1933" font-family="Times,serif" font-size="14.00" fill="#000000">u</text>
</g>
<!-- 6&#45;&gt;8 -->
<g id="edge9" class="edge">
<title>6-&gt;8</title>
<path fill="none" stroke="#000000" d="M54.303,-46.3933C62.5813,-46.3933 71.8217,-46.3933 80.6405,-46.3933"/>
<polygon fill="#000000" stroke="#000000" points="80.7163,-49.8934 90.7163,-46.3933 80.7162,-42.8934 80.7163,-49.8934"/>
</g>
</g>
</svg>