<?xml version="1.0" encoding="UTF-8" standalone="no"?><!DOCTYPE svg PUBLIC "-//W3C//DTD SVG 1.1//EN" "http://www.w3.org/Graphics/SVG/1.1/DTD/svg11.dtd"><!-- Generated by graphviz version 2.40.1 (20161225.0304)
 --><!-- Title: G Pages: 1 --><svg xmlns="http://www.w3.org/2000/svg" xmlns:xlink="http://www.w3.org/1999/xlink" width="566pt" height="452pt" viewBox="0.00 0.00 566.00 452.00">
<g id="graph0" class="graph" transform="scale(1 1) rotate(0) translate(4 448)">
<title>G</title>
<polygon fill="#ffffff" stroke="transparent" points="-4,4 -4,-448 562,-448 562,4 -4,4"/>
<!-- 1 -->
<g id="node1" class="node">
<title>1</title>
<text text-anchor="middle" x="351" y="-413" font-family="Courier New" font-size="30.00" fill="#000000">/</text>
</g>
<!-- 2 -->
<g id="node2" class="node">
<title>2</title>
<text text-anchor="middle" x="279" y="-333" font-family="Courier New" font-size="30.00" fill="#000000">-</text>
</g>
<!-- 1&#45;&gt;2 -->
<g id="edge1" class="edge">
<title>1-&gt;2</title>
<path fill="none" stroke="#000000" stroke-width=".5" d="M330.944,-399.7155C322.1279,-389.9199 311.7132,-378.348 302.5326,-368.1473"/>
<polygon fill="#000000" stroke="#000000" stroke-width=".5" points="303.5941,-366.7107 298.9485,-364.165 300.9925,-369.0521 303.5941,-366.7107"/>
</g>
<!-- 17 -->
<g id="node17" class="node">
<title>17</title>
<text text-anchor="middle" x="387" y="-333" font-family="Courier New" font-size="30.00" fill="#000000">^</text>
</g>
<!-- 1&#45;&gt;17 -->
<g id="edge16" class="edge">
<title>1-&gt;17</title>
<path fill="none" stroke="#000000" stroke-width=".5" d="M361.028,-399.7155C365.319,-390.18 370.3675,-378.9611 374.8668,-368.9626"/>
<polygon fill="#000000" stroke="#000000" stroke-width=".5" points="376.5698,-369.4427 377.0258,-364.165 373.378,-368.0064 376.5698,-369.4427"/>
</g>
<!-- 3 -->
<g id="node3" class="node">
<title>3</title>
<text text-anchor="middle" x="99" y="-253" font-family="Courier New" font-size="30.00" fill="#000000">*</text>
</g>
<!-- 2&#45;&gt;3 -->
<g id="edge2" class="edge">
<title>2-&gt;3</title>
<path fill="none" stroke="#000000" stroke-width=".5" d="M251.6619,-329.8497C219.2284,-315.4348 165.2411,-291.4405 130.9216,-276.1874"/>
<polygon fill="#000000" stroke="#000000" stroke-width=".5" points="131.2854,-274.4341 126.0056,-274.0025 129.8639,-277.6324 131.2854,-274.4341"/>
</g>
<!-- 8 -->
<g id="node8" class="node">
<title>8</title>
<text text-anchor="middle" x="279" y="-253" font-family="Courier New" font-size="30.00" fill="#000000">*</text>
</g>
<!-- 2&#45;&gt;8 -->
<g id="edge7" class="edge">
<title>2-&gt;8</title>
<path fill="none" stroke="#000000" stroke-width=".5" d="M279,-319.7155C279,-310.2666 279,-299.165 279,-289.2356"/>
<polygon fill="#000000" stroke="#000000" stroke-width=".5" points="280.7501,-289.1649 279,-284.165 277.2501,-289.165 280.7501,-289.1649"/>
</g>
<!-- 4 -->
<g id="node4" class="node">
<title>4</title>
<text text-anchor="middle" x="27" y="-173" font-family="Courier New" font-size="30.00" fill="#000000">2</text>
</g>
<!-- 3&#45;&gt;4 -->
<g id="edge3" class="edge">
<title>3-&gt;4</title>
<path fill="none" stroke="#000000" stroke-width=".5" d="M78.944,-239.7155C70.1279,-229.9199 59.7132,-218.348 50.5326,-208.1473"/>
<polygon fill="#000000" stroke="#000000" stroke-width=".5" points="51.5941,-206.7107 46.9485,-204.165 48.9925,-209.0521 51.5941,-206.7107"/>
</g>
<!-- 5 -->
<g id="node5" class="node">
<title>5</title>
<text text-anchor="middle" x="99" y="-173" font-family="Courier New" font-size="30.00" fill="#000000">^</text>
</g>
<!-- 3&#45;&gt;5 -->
<g id="edge4" class="edge">
<title>3-&gt;5</title>
<path fill="none" stroke="#000000" stroke-width=".5" d="M99,-239.7155C99,-230.2666 99,-219.165 99,-209.2356"/>
<polygon fill="#000000" stroke="#000000" stroke-width=".5" points="100.7501,-209.1649 99,-204.165 97.2501,-209.165 100.7501,-209.1649"/>
</g>
<!-- 6 -->
<g id="node6" class="node">
<title>6</title>
<text text-anchor="middle" x="27" y="-93" font-family="Courier New" font-size="30.00" fill="#000000">x</text>
</g>
<!-- 5&#45;&gt;6 -->
<g id="edge5" class="edge">
<title>5-&gt;6</title>
<path fill="none" stroke="#000000" stroke-width=".5" d="M78.944,-159.7155C70.1279,-149.9199 59.7132,-138.348 50.5326,-128.1473"/>
<polygon fill="#000000" stroke="#000000" stroke-width=".5" points="51.5941,-126.7107 46.9485,-124.165 48.9925,-129.0521 51.5941,-126.7107"/>
</g>
<!-- 7 -->
<g id="node7" class="node">
<title>7</title>
<text text-anchor="middle" x="99" y="-93" font-family="Courier New" font-size="30.00" fill="#000000">2</text>
</g>
<!-- 5&#45;&gt;7 -->
<g id="edge6" class="edge">
<title>5-&gt;7</title>
<path fill="none" stroke="#000000" stroke-width=".5" d="M99,-159.7155C99,-150.2666 99,-139.165 99,-129.2356"/>
<polygon fill="#000000" stroke="#000000" stroke-width=".5" points="100.7501,-129.1649 99,-124.165 97.2501,-129.165 100.7501,-129.1649"/>
</g>
<!-- 9 -->
<g id="node9" class="node">
<title>9</title>
<text text-anchor="middle" x="243" y="-173" font-family="Courier New" font-size="30.00" fill="#000000">+</text>
</g>
<!-- 8&#45;&gt;9 -->
<g id="edge8" class="edge">
<title>8-&gt;9</title>
<path fill="none" stroke="#000000" stroke-width=".5" d="M268.972,-239.7155C264.681,-230.18 259.6325,-218.9611 255.1332,-208.9626"/>
<polygon fill="#000000" stroke="#000000" stroke-width=".5" points="256.622,-208.0064 252.9742,-204.165 253.4302,-209.4427 256.622,-208.0064"/>
</g>
<!-- 12 -->
<g id="node12" class="node">
<title>12</title>
<text text-anchor="middle" x="315" y="-173" font-family="Courier New" font-size="30.00" fill="#000000">*</text>
</g>
<!-- 8&#45;&gt;12 -->
<g id="edge11" class="edge">
<title>8-&gt;12</title>
<path fill="none" stroke="#000000" stroke-width=".5" d="M289.028,-239.7155C293.319,-230.18 298.3675,-218.9611 302.8668,-208.9626"/>
<polygon fill="#000000" stroke="#000000" stroke-width=".5" points="304.5698,-209.4427 305.0258,-204.165 301.378,-208.0064 304.5698,-209.4427"/>
</g>
<!-- 10 -->
<g id="node10" class="node">
<title>10</title>
<text text-anchor="middle" x="171" y="-93" font-family="Courier New" font-size="30.00" fill="#000000">1</text>
</g>
<!-- 9&#45;&gt;10 -->
<g id="edge9" class="edge">
<title>9-&gt;10</title>
<path fill="none" stroke="#000000" stroke-width=".5" d="M222.944,-159.7155C214.1279,-149.9199 203.7132,-138.348 194.5326,-128.1473"/>
<polygon fill="#000000" stroke="#000000" stroke-width=".5" points="195.5941,-126.7107 190.9485,-124.165 192.9925,-129.0521 195.5941,-126.7107"/>
</g>
<!-- 11 -->
<g id="node11" class="node">
<title>11</title>
<text text-anchor="middle" x="243" y="-93" font-family="Courier New" font-size="30.00" fill="#000000">x</text>
</g>
<!-- 9&#45;&gt;11 -->
<g id="edge10" class="edge">
<title>9-&gt;11</title>
<path fill="none" stroke="#000000" stroke-width=".5" d="M243,-159.7155C243,-150.2666 243,-139.165 243,-129.2356"/>
<polygon fill="#000000" stroke="#000000" stroke-width=".5" points="244.7501,-129.1649 243,-124.165 241.2501,-129.165 244.7501,-129.1649"/>
</g>
<!-- 13 -->
<g id="node13" class="node">
<title>13</title>
<text text-anchor="middle" x="315" y="-93" font-family="Courier New" font-size="30.00" fill="#000000">2</text>
</g>
<!-- 12&#45;&gt;13 -->
<g id="edge12" class="edge">
<title>12-&gt;13</title>
<path fill="none" stroke="#000000" stroke-width=".5" d="M315,-159.7155C315,-150.2666 315,-139.165 315,-129.2356"/>
<polygon fill="#000000" stroke="#000000" stroke-width=".5" points="316.7501,-129.1649 315,-124.165 313.2501,-129.165 316.7501,-129.1649"/>
</g>
<!-- 14 -->
<g id="node14" class="node">
<title>14</title>
<text text-anchor="middle" x="387" y="-93" font-family="Courier New" font-size="30.00" fill="#000000">*</text>
</g>
<!-- 12&#45;&gt;14 -->
<g id="edge13" class="edge">
<title>12-&gt;14</title>
<path fill="none" stroke="#000000" stroke-width=".5" d="M335.056,-159.7155C343.8721,-149.9199 354.2868,-138.348 363.4674,-128.1473"/>
<polygon fill="#000000" stroke="#000000" stroke-width=".5" points="365.0075,-129.0521 367.0515,-124.165 362.4059,-126.7107 365.0075,-129.0521"/>
</g>
<!-- 15 -->
<g id="node15" class="node">
<title>15</title>
<text text-anchor="middle" x="351" y="-13" font-family="Courier New" font-size="30.00" fill="#000000">2</text>
</g>
<!-- 14&#45;&gt;15 -->
<g id="edge14" class="edge">
<title>14-&gt;15</title>
<path fill="none" stroke="#000000" stroke-width=".5" d="M376.972,-79.7155C372.681,-70.18 367.6325,-58.9611 363.1332,-48.9626"/>
<polygon fill="#000000" stroke="#000000" stroke-width=".5" points="364.622,-48.0064 360.9742,-44.165 361.4302,-49.4427 364.622,-48.0064"/>
</g>
<!-- 16 -->
<g id="node16" class="node">
<title>16</title>
<text text-anchor="middle" x="423" y="-13" font-family="Courier New" font-size="30.00" fill="#000000">x</text>
</g>
<!-- 14&#45;&gt;16 -->
<g id="edge15" class="edge">
<title>14-&gt;16</title>
<path fill="none" stroke="#000000" stroke-width=".5" d="M397.028,-79.7155C401.319,-70.18 406.3675,-58.9611 410.8668,-48.9626"/>
<polygon fill="#000000" stroke="#000000" stroke-width=".5" points="412.5698,-49.4427 413.0258,-44.165 409.378,-48.0064 412.5698,-49.4427"/>
</g>
<!-- 18 -->
<g id="node18" class="node">
<title>18</title>
<text text-anchor="middle" x="387" y="-253" font-family="Courier New" font-size="30.00" fill="#000000">*</text>
</g>
<!-- 17&#45;&gt;18 -->
<g id="edge17" class="edge">
<title>17-&gt;18</title>
<path fill="none" stroke="#000000" stroke-width=".5" d="M387,-319.7155C387,-310.2666 387,-299.165 387,-289.2356"/>
<polygon fill="#000000" stroke="#000000" stroke-width=".5" points="388.7501,-289.1649 387,-284.165 385.2501,-289.165 388.7501,-289.1649"/>
</g>
<!-- 23 -->
<g id="node23" class="node">
<title>23</title>
<text text-anchor="middle" x="459" y="-253" font-family="Courier New" font-size="30.00" fill="#000000">2</text>
</g>
<!-- 17&#45;&gt;23 -->
<g id="edge22" class="edge">
<title>17-&gt;23</title>
<path fill="none" stroke="#000000" stroke-width=".5" d="M407.056,-319.7155C415.8721,-309.9199 426.2868,-298.348 435.4674,-288.1473"/>
<polygon fill="#000000" stroke="#000000" stroke-width=".5" points="437.0075,-289.0521 439.0515,-284.165 434.4059,-286.7107 437.0075,-289.0521"/>
</g>
<!-- 19 -->
<g id="node19" class="node">
<title>19</title>
<text text-anchor="middle" x="387" y="-173" font-family="Courier New" font-size="30.00" fill="#000000">2</text>
</g>
<!-- 18&#45;&gt;19 -->
<g id="edge18" class="edge">
<title>18-&gt;19</title>
<path fill="none" stroke="#000000" stroke-width=".5" d="M387,-239.7155C387,-230.2666 387,-219.165 387,-209.2356"/>
<polygon fill="#000000" stroke="#000000" stroke-width=".5" points="388.7501,-209.1649 387,-204.165 385.2501,-209.165 388.7501,-209.1649"/>
</g>
<!-- 20 -->
<g id="node20" class="node">
<title>20</title>
<text text-anchor="middle" x="459" y="-173" font-family="Courier New" font-size="30.00" fill="#000000">^</text>
</g>
<!-- 18&#45;&gt;20 -->
<g id="edge19" class="edge">
<title>18-&gt;20</title>
<path fill="none" stroke="#000000" stroke-width=".5" d="M407.056,-239.7155C415.8721,-229.9199 426.2868,-218.348 435.4674,-208.1473"/>
<polygon fill="#000000" stroke="#000000" stroke-width=".5" points="437.0075,-209.0521 439.0515,-204.165 434.4059,-206.7107 437.0075,-209.0521"/>
</g>
<!-- 21 -->
<g id="node21" class="node">
<title>21</title>
<text text-anchor="middle" x="459" y="-93" font-family="Courier New" font-size="30.00" fill="#000000">x</text>
</g>
<!-- 20&#45;&gt;21 -->
<g id="edge20" class="edge">
<title>20-&gt;21</title>
<path fill="none" stroke="#000000" stroke-width=".5" d="M459,-159.7155C459,-150.2666 459,-139.165 459,-129.2356"/>
<polygon fill="#000000" stroke="#000000" stroke-width=".5" points="460.7501,-129.1649 459,-124.165 457.2501,-129.165 460.7501,-129.1649"/>
</g>
<!-- 22 -->
<g id="node22" class="node">
<title>22</title>
<text text-anchor="middle" x="531" y="-93" font-family="Courier New" font-size="30.00" fill="#000000">2</text>
</g>
<!-- 20&#45;&gt;22 -->
<g id="edge21" class="edge">
<title>20-&gt;22</title>
<path fill="none" stroke="#000000" stroke-width=".5" d="M479.056,-159.7155C487.8721,-149.9199 498.2868,-138.348 507.4674,-128.1473"/>
<polygon fill="#000000" stroke="#000000" stroke-width=".5" points="509.0075,-129.0521 511.0515,-124.165 506.4059,-126.7107 509.0075,-129.0521"/>
</g>
</g>
</svg>