<?xml version="1.0" encoding="UTF-8" standalone="no"?><!DOCTYPE svg PUBLIC "-//W3C//DTD SVG 1.1//EN" "http://www.w3.org/Graphics/SVG/1.1/DTD/svg11.dtd"><!-- Generated by graphviz version 2.40.1 (20161225.0304)
 --><!-- Title: G Pages: 1 --><svg xmlns="http://www.w3.org/2000/svg" xmlns:xlink="http://www.w3.org/1999/xlink" width="278pt" height="292pt" viewBox="0.00 0.00 278.00 292.00">
<g id="graph0" class="graph" transform="scale(1 1) rotate(0) translate(4 288)">
<title>G</title>
<polygon fill="#ffffff" stroke="transparent" points="-4,4 -4,-288 274,-288 274,4 -4,4"/>
<!-- 1 -->
<g id="node1" class="node">
<title>1</title>
<text text-anchor="middle" x="135" y="-253" font-family="Courier New" font-size="30.00" fill="#000000">cos</text>
</g>
<!-- 2 -->
<g id="node2" class="node">
<title>2</title>
<text text-anchor="middle" x="135" y="-173" font-family="Courier New" font-size="30.00" fill="#000000">+</text>
</g>
<!-- 1&#45;&gt;2 -->
<g id="edge1" class="edge">
<title>1-&gt;2</title>
<path fill="none" stroke="#000000" stroke-width=".5" d="M135,-239.7155C135,-230.2666 135,-219.165 135,-209.2356"/>
<polygon fill="#000000" stroke="#000000" stroke-width=".5" points="136.7501,-209.1649 135,-204.165 133.2501,-209.165 136.7501,-209.1649"/>
</g>
<!-- 3 -->
<g id="node3" class="node">
<title>3</title>
<text text-anchor="middle" x="99" y="-93" font-family="Courier New" font-size="30.00" fill="#000000">+</text>
</g>
<!-- 2&#45;&gt;3 -->
<g id="edge2" class="edge">
<title>2-&gt;3</title>
<path fill="none" stroke="#000000" stroke-width=".5" d="M124.972,-159.7155C120.681,-150.18 115.6325,-138.9611 111.1332,-128.9626"/>
<polygon fill="#000000" stroke="#000000" stroke-width=".5" points="112.622,-128.0064 108.9742,-124.165 109.4302,-129.4427 112.622,-128.0064"/>
</g>
<!-- 6 -->
<g id="node6" class="node">
<title>6</title>
<text text-anchor="middle" x="171" y="-93" font-family="Courier New" font-size="30.00" fill="#000000">*</text>
</g>
<!-- 2&#45;&gt;6 -->
<g id="edge5" class="edge">
<title>2-&gt;6</title>
<path fill="none" stroke="#000000" stroke-width=".5" d="M145.028,-159.7155C149.319,-150.18 154.3675,-138.9611 158.8668,-128.9626"/>
<polygon fill="#000000" stroke="#000000" stroke-width=".5" points="160.5698,-129.4427 161.0258,-124.165 157.378,-128.0064 160.5698,-129.4427"/>
</g>
<!-- 4 -->
<g id="node4" class="node">
<title>4</title>
<text text-anchor="middle" x="27" y="-13" font-family="Courier New" font-size="30.00" fill="#000000">x</text>
</g>
<!-- 3&#45;&gt;4 -->
<g id="edge3" class="edge">
<title>3-&gt;4</title>
<path fill="none" stroke="#000000" stroke-width=".5" d="M78.944,-79.7155C70.1279,-69.9199 59.7132,-58.348 50.5326,-48.1473"/>
<polygon fill="#000000" stroke="#000000" stroke-width=".5" points="51.5941,-46.7107 46.9485,-44.165 48.9925,-49.0521 51.5941,-46.7107"/>
</g>
<!-- 5 -->
<g id="node5" class="node">
<title>5</title>
<text text-anchor="middle" x="99" y="-13" font-family="Courier New" font-size="30.00" fill="#000000">y</text>
</g>
<!-- 3&#45;&gt;5 -->
<g id="edge4" class="edge">
<title>3-&gt;5</title>
<path fill="none" stroke="#000000" stroke-width=".5" d="M99,-79.7155C99,-70.2666 99,-59.165 99,-49.2356"/>
<polygon fill="#000000" stroke="#000000" stroke-width=".5" points="100.7501,-49.1649 99,-44.165 97.2501,-49.165 100.7501,-49.1649"/>
</g>
<!-- 7 -->
<g id="node7" class="node">
<title>7</title>
<text text-anchor="middle" x="171" y="-13" font-family="Courier New" font-size="30.00" fill="#000000">x</text>
</g>
<!-- 6&#45;&gt;7 -->
<g id="edge6" class="edge">
<title>6-&gt;7</title>
<path fill="none" stroke="#000000" stroke-width=".5" d="M171,-79.7155C171,-70.2666 171,-59.165 171,-49.2356"/>
<polygon fill="#000000" stroke="#000000" stroke-width=".5" points="172.7501,-49.1649 171,-44.165 169.2501,-49.165 172.7501,-49.1649"/>
</g>
<!-- 8 -->
<g id="node8" class="node">
<title>8</title>
<text text-anchor="middle" x="243" y="-13" font-family="Courier New" font-size="30.00" fill="#000000">y</text>
</g>
<!-- 6&#45;&gt;8 -->
<g id="edge7" class="edge">
<title>6-&gt;8</title>
<path fill="none" stroke="#000000" stroke-width=".5" d="M191.056,-79.7155C199.8721,-69.9199 210.2868,-58.348 219.4674,-48.1473"/>
<polygon fill="#000000" stroke="#000000" stroke-width=".5" points="221.0075,-49.0521 223.0515,-44.165 218.4059,-46.7107 221.0075,-49.0521"/>
</g>
</g>
</svg>