<?xml version="1.0" encoding="UTF-8" standalone="no"?><!DOCTYPE svg PUBLIC "-//W3C//DTD SVG 1.1//EN" "http://www.w3.org/Graphics/SVG/1.1/DTD/svg11.dtd"><!-- Generated by graphviz version 2.40.1 (20161225.0304)
 --><!-- Title: G Pages: 1 --><svg xmlns="http://www.w3.org/2000/svg" xmlns:xlink="http://www.w3.org/1999/xlink" width="726pt" height="952pt" viewBox="0.00 0.00 726.00 952.00">
<g id="graph0" class="graph" transform="scale(1 1) rotate(0) translate(4 948)">
<title>G</title>
<polygon fill="#ffffff" stroke="transparent" points="-4,4 -4,-948 722,-948 722,4 -4,4"/>
<g id="clust1" class="cluster">
<title>cluster_1</title>
<polygon fill="none" stroke="#000000" points="568,-168 568,-417.6 710,-417.6 710,-168 568,-168"/>
<text text-anchor="middle" x="639" y="-401" font-family="Times,serif" font-size="14.00" fill="#000000">y_{1}</text>
</g>
<g id="clust2" class="cluster">
<title>cluster_2</title>
<polygon fill="none" stroke="#000000" points="438,-332.8 438,-590.4 560,-590.4 560,-332.8 438,-332.8"/>
<text text-anchor="middle" x="499" y="-573.8" font-family="Times,serif" font-size="14.00" fill="#000000">y_{2}</text>
</g>
<g id="clust3" class="cluster">
<title>cluster_3</title>
<polygon fill="none" stroke="#000000" points="8,-168 8,-417.6 150,-417.6 150,-168 8,-168"/>
<text text-anchor="middle" x="79" y="-401" font-family="Times,serif" font-size="14.00" fill="#000000">y_{3}</text>
</g>
<g id="clust4" class="cluster">
<title>cluster_4</title>
<polygon fill="none" stroke="#000000" points="158,-8 158,-252.8 300,-252.8 300,-8 158,-8"/>
<text text-anchor="middle" x="229" y="-236.2" font-family="Times,serif" font-size="14.00" fill="#000000">y_{4}</text>
</g>
<g id="clust5" class="cluster">
<title>cluster_5</title>
<polygon fill="none" stroke="#000000" points="308,-168 308,-417.6 430,-417.6 430,-168 308,-168"/>
<text text-anchor="middle" x="369" y="-401" font-family="Times,serif" font-size="14.00" fill="#000000">y_{5}</text>
</g>
<g id="clust6" class="cluster">
<title>cluster_6</title>
<polygon fill="none" stroke="#000000" points="308,-425.6 308,-590.4 430,-590.4 430,-425.6 308,-425.6"/>
<text text-anchor="middle" x="369" y="-573.8" font-family="Times,serif" font-size="14.00" fill="#000000">y_{6}</text>
</g>
<g id="clust7" class="cluster">
<title>cluster_7</title>
<polygon fill="none" stroke="#000000" points="438,-598.4 438,-763.2 560,-763.2 560,-598.4 438,-598.4"/>
<text text-anchor="middle" x="499" y="-746.6" font-family="Times,serif" font-size="14.00" fill="#000000">y_{7}</text>
</g>
<g id="clust8" class="cluster">
<title>cluster_8</title>
<polygon fill="none" stroke="#000000" points="568,-505.6 568,-763.2 690,-763.2 690,-505.6 568,-505.6"/>
<text text-anchor="middle" x="629" y="-746.6" font-family="Times,serif" font-size="14.00" fill="#000000">y_{8}</text>
</g>
<g id="clust9" class="cluster">
<title>cluster_9</title>
<polygon fill="none" stroke="#000000" points="503,-771.2 503,-936 625,-936 625,-771.2 503,-771.2"/>
<text text-anchor="middle" x="564" y="-919.4" font-family="Times,serif" font-size="14.00" fill="#000000">y_{9}</text>
</g>
<!-- 1 -->
<g id="node1" class="node">
<title>1</title>
<text text-anchor="middle" x="629" y="-353.8" font-family="Courier New" font-size="30.00" fill="#000000">y_{1}</text>
</g>
<!-- 10001 -->
<g id="node2" class="node">
<title>10001</title>
<text text-anchor="middle" x="629" y="-273.8" font-family="Courier New" font-size="30.00" fill="#000000">^</text>
</g>
<!-- 1&#45;&gt;10001 -->
<g id="edge3" class="edge">
<title>1-&gt;10001</title>
<path fill="none" stroke="#000000" stroke-width=".5" d="M629,-340.5155C629,-331.0666 629,-319.965 629,-310.0356"/>
<polygon fill="#000000" stroke="#000000" stroke-width=".5" points="630.7501,-309.9649 629,-304.965 627.2501,-309.965 630.7501,-309.9649"/>
</g>
<!-- 10002 -->
<g id="node3" class="node">
<title>10002</title>
<text text-anchor="middle" x="603" y="-189" font-family="Courier New" font-size="30.00" fill="#000000">x</text>
</g>
<!-- 10001&#45;&gt;10002 -->
<g id="edge1" class="edge">
<title>10001-&gt;10002</title>
<path fill="none" stroke="#000000" stroke-width=".5" d="M622.1688,-260.5198C618.8249,-249.6136 614.7722,-236.3953 611.256,-224.9273"/>
<polygon fill="#000000" stroke="#000000" stroke-width=".5" points="612.9244,-224.3987 609.7856,-220.1314 609.5782,-225.4248 612.9244,-224.3987"/>
</g>
<!-- 10003 -->
<g id="node4" class="node">
<title>10003</title>
<text text-anchor="middle" x="675" y="-189" font-family="Courier New" font-size="30.00" fill="#000000">2</text>
</g>
<!-- 10001&#45;&gt;10003 -->
<g id="edge2" class="edge">
<title>10001-&gt;10003</title>
<path fill="none" stroke="#000000" stroke-width=".5" d="M641.086,-260.5198C647.0549,-249.5162 654.3005,-236.1591 660.5596,-224.6205"/>
<polygon fill="#000000" stroke="#000000" stroke-width=".5" points="662.1489,-225.3609 662.9948,-220.1314 659.0724,-223.692 662.1489,-225.3609"/>
</g>
<!-- 2 -->
<g id="node5" class="node">
<title>2</title>
<text text-anchor="middle" x="499" y="-526.6" font-family="Courier New" font-size="30.00" fill="#000000">y_{2}</text>
</g>
<!-- 10004 -->
<g id="node6" class="node">
<title>10004</title>
<text text-anchor="middle" x="512" y="-446.6" font-family="Courier New" font-size="30.00" fill="#000000">*</text>
</g>
<!-- 2&#45;&gt;10004 -->
<g id="edge6" class="edge">
<title>2-&gt;10004</title>
<path fill="none" stroke="#000000" stroke-width=".5" d="M502.6212,-513.3155C504.1567,-503.8666 505.9607,-492.765 507.5742,-482.8356"/>
<polygon fill="#000000" stroke="#000000" stroke-width=".5" points="509.3235,-482.9809 508.3982,-477.765 505.8688,-482.4195 509.3235,-482.9809"/>
</g>
<!-- 10004&#45;&gt;1 -->
<g id="edge5" class="edge">
<title>10004-&gt;1</title>
<path fill="none" stroke="#000000" stroke-width=".5" d="M539.2549,-436.2282C547.3093,-430.3577 556.0858,-423.8157 564,-417.6 575.889,-408.2624 588.6693,-397.6248 599.7245,-388.222"/>
<polygon fill="#000000" stroke="#000000" stroke-width=".5" points="601.0463,-389.3947 603.7146,-384.8183 598.7748,-386.7319 601.0463,-389.3947"/>
</g>
<!-- 10005 -->
<g id="node7" class="node">
<title>10005</title>
<text text-anchor="middle" x="512" y="-353.8" font-family="Courier New" font-size="30.00" fill="#000000">2</text>
</g>
<!-- 10004&#45;&gt;10005 -->
<g id="edge4" class="edge">
<title>10004-&gt;10005</title>
<path fill="none" stroke="#000000" stroke-width=".5" d="M512,-433.1357C512,-420.2551 512,-403.9856 512,-390.3391"/>
<polygon fill="#000000" stroke="#000000" stroke-width=".5" points="513.7501,-390.0574 512,-385.0574 510.2501,-390.0575 513.7501,-390.0574"/>
</g>
<!-- 3 -->
<g id="node8" class="node">
<title>3</title>
<text text-anchor="middle" x="89" y="-353.8" font-family="Courier New" font-size="30.00" fill="#000000">y_{3}</text>
</g>
<!-- 10006 -->
<g id="node9" class="node">
<title>10006</title>
<text text-anchor="middle" x="89" y="-273.8" font-family="Courier New" font-size="30.00" fill="#000000">+</text>
</g>
<!-- 3&#45;&gt;10006 -->
<g id="edge9" class="edge">
<title>3-&gt;10006</title>
<path fill="none" stroke="#000000" stroke-width=".5" d="M89,-340.5155C89,-331.0666 89,-319.965 89,-310.0356"/>
<polygon fill="#000000" stroke="#000000" stroke-width=".5" points="90.7501,-309.9649 89,-304.965 87.2501,-309.965 90.7501,-309.9649"/>
</g>
<!-- 10007 -->
<g id="node10" class="node">
<title>10007</title>
<text text-anchor="middle" x="43" y="-189" font-family="Courier New" font-size="30.00" fill="#000000">1</text>
</g>
<!-- 10006&#45;&gt;10007 -->
<g id="edge7" class="edge">
<title>10006-&gt;10007</title>
<path fill="none" stroke="#000000" stroke-width=".5" d="M76.914,-260.5198C70.9451,-249.5162 63.6995,-236.1591 57.4404,-224.6205"/>
<polygon fill="#000000" stroke="#000000" stroke-width=".5" points="58.9276,-223.692 55.0052,-220.1314 55.8511,-225.3609 58.9276,-223.692"/>
</g>
<!-- 10008 -->
<g id="node11" class="node">
<title>10008</title>
<text text-anchor="middle" x="115" y="-189" font-family="Courier New" font-size="30.00" fill="#000000">x</text>
</g>
<!-- 10006&#45;&gt;10008 -->
<g id="edge8" class="edge">
<title>10006-&gt;10008</title>
<path fill="none" stroke="#000000" stroke-width=".5" d="M95.8312,-260.5198C99.1751,-249.6136 103.2278,-236.3953 106.744,-224.9273"/>
<polygon fill="#000000" stroke="#000000" stroke-width=".5" points="108.4218,-225.4248 108.2144,-220.1314 105.0756,-224.3987 108.4218,-225.4248"/>
</g>
<!-- 4 -->
<g id="node12" class="node">
<title>4</title>
<text text-anchor="middle" x="239" y="-189" font-family="Courier New" font-size="30.00" fill="#000000">y_{4}</text>
</g>
<!-- 10009 -->
<g id="node13" class="node">
<title>10009</title>
<text text-anchor="middle" x="239" y="-109" font-family="Courier New" font-size="30.00" fill="#000000">*</text>
</g>
<!-- 4&#45;&gt;10009 -->
<g id="edge12" class="edge">
<title>4-&gt;10009</title>
<path fill="none" stroke="#000000" stroke-width=".5" d="M239,-175.7155C239,-166.2666 239,-155.165 239,-145.2356"/>
<polygon fill="#000000" stroke="#000000" stroke-width=".5" points="240.7501,-145.1649 239,-140.165 237.2501,-145.165 240.7501,-145.1649"/>
</g>
<!-- 10010 -->
<g id="node14" class="node">
<title>10010</title>
<text text-anchor="middle" x="193" y="-29" font-family="Courier New" font-size="30.00" fill="#000000">2</text>
</g>
<!-- 10009&#45;&gt;10010 -->
<g id="edge10" class="edge">
<title>10009-&gt;10010</title>
<path fill="none" stroke="#000000" stroke-width=".5" d="M226.1864,-95.7155C220.6536,-86.0933 214.1353,-74.757 208.3469,-64.6902"/>
<polygon fill="#000000" stroke="#000000" stroke-width=".5" points="209.7543,-63.6272 205.7448,-60.165 206.7202,-65.3718 209.7543,-63.6272"/>
</g>
<!-- 10011 -->
<g id="node15" class="node">
<title>10011</title>
<text text-anchor="middle" x="265" y="-29" font-family="Courier New" font-size="30.00" fill="#000000">x</text>
</g>
<!-- 10009&#45;&gt;10011 -->
<g id="edge11" class="edge">
<title>10009-&gt;10011</title>
<path fill="none" stroke="#000000" stroke-width=".5" d="M246.2424,-95.7155C249.3415,-86.18 252.9876,-74.9611 256.2372,-64.9626"/>
<polygon fill="#000000" stroke="#000000" stroke-width=".5" points="257.9152,-65.4611 257.7964,-60.165 254.5866,-64.3792 257.9152,-65.4611"/>
</g>
<!-- 5 -->
<g id="node16" class="node">
<title>5</title>
<text text-anchor="middle" x="369" y="-353.8" font-family="Courier New" font-size="30.00" fill="#000000">y_{5}</text>
</g>
<!-- 10012 -->
<g id="node17" class="node">
<title>10012</title>
<text text-anchor="middle" x="356" y="-273.8" font-family="Courier New" font-size="30.00" fill="#000000">*</text>
</g>
<!-- 5&#45;&gt;10012 -->
<g id="edge15" class="edge">
<title>5-&gt;10012</title>
<path fill="none" stroke="#000000" stroke-width=".5" d="M365.3788,-340.5155C363.8433,-331.0666 362.0393,-319.965 360.4258,-310.0356"/>
<polygon fill="#000000" stroke="#000000" stroke-width=".5" points="362.1312,-309.6195 359.6018,-304.965 358.6765,-310.1809 362.1312,-309.6195"/>
</g>
<!-- 10012&#45;&gt;4 -->
<g id="edge14" class="edge">
<title>10012-&gt;4</title>
<path fill="none" stroke="#000000" stroke-width=".5" d="M328.9842,-268.4198C320.7724,-263.7313 311.849,-258.3077 304,-252.8 291.41,-243.9655 278.2998,-233.2435 267.179,-223.6344"/>
<polygon fill="#000000" stroke="#000000" stroke-width=".5" points="268.0968,-222.1132 263.1765,-220.1501 265.7987,-224.7531 268.0968,-222.1132"/>
</g>
<!-- 10013 -->
<g id="node18" class="node">
<title>10013</title>
<text text-anchor="middle" x="356" y="-189" font-family="Courier New" font-size="30.00" fill="#000000">2</text>
</g>
<!-- 10012&#45;&gt;10013 -->
<g id="edge13" class="edge">
<title>10012-&gt;10013</title>
<path fill="none" stroke="#000000" stroke-width=".5" d="M356,-260.5198C356,-249.711 356,-236.6312 356,-225.2349"/>
<polygon fill="#000000" stroke="#000000" stroke-width=".5" points="357.7501,-225.1314 356,-220.1314 354.2501,-225.1314 357.7501,-225.1314"/>
</g>
<!-- 6 -->
<g id="node19" class="node">
<title>6</title>
<text text-anchor="middle" x="369" y="-526.6" font-family="Courier New" font-size="30.00" fill="#000000">y_{6}</text>
</g>
<!-- 10014 -->
<g id="node20" class="node">
<title>10014</title>
<text text-anchor="middle" x="369" y="-446.6" font-family="Courier New" font-size="30.00" fill="#000000">*</text>
</g>
<!-- 6&#45;&gt;10014 -->
<g id="edge18" class="edge">
<title>6-&gt;10014</title>
<path fill="none" stroke="#000000" stroke-width=".5" d="M369,-513.3155C369,-503.8666 369,-492.765 369,-482.8356"/>
<polygon fill="#000000" stroke="#000000" stroke-width=".5" points="370.7501,-482.7649 369,-477.765 367.2501,-482.765 370.7501,-482.7649"/>
</g>
<!-- 10014&#45;&gt;3 -->
<g id="edge16" class="edge">
<title>10014-&gt;3</title>
<path fill="none" stroke="#000000" stroke-width=".5" d="M341.898,-446.6176C297.1115,-431.7741 206.682,-401.8032 146.9845,-382.0177"/>
<polygon fill="#000000" stroke="#000000" stroke-width=".5" points="147.321,-380.2857 142.0243,-380.3738 146.2199,-383.608 147.321,-380.2857"/>
</g>
<!-- 10014&#45;&gt;5 -->
<g id="edge17" class="edge">
<title>10014-&gt;5</title>
<path fill="none" stroke="#000000" stroke-width=".5" d="M369,-433.1357C369,-420.2551 369,-403.9856 369,-390.3391"/>
<polygon fill="#000000" stroke="#000000" stroke-width=".5" points="370.7501,-390.0574 369,-385.0574 367.2501,-390.0575 370.7501,-390.0574"/>
</g>
<!-- 7 -->
<g id="node21" class="node">
<title>7</title>
<text text-anchor="middle" x="499" y="-699.4" font-family="Courier New" font-size="30.00" fill="#000000">y_{7}</text>
</g>
<!-- 10015 -->
<g id="node22" class="node">
<title>10015</title>
<text text-anchor="middle" x="499" y="-619.4" font-family="Courier New" font-size="30.00" fill="#000000">-</text>
</g>
<!-- 7&#45;&gt;10015 -->
<g id="edge21" class="edge">
<title>7-&gt;10015</title>
<path fill="none" stroke="#000000" stroke-width=".5" d="M499,-686.1155C499,-676.6666 499,-665.565 499,-655.6356"/>
<polygon fill="#000000" stroke="#000000" stroke-width=".5" points="500.7501,-655.5649 499,-650.565 497.2501,-655.565 500.7501,-655.5649"/>
</g>
<!-- 10015&#45;&gt;2 -->
<g id="edge19" class="edge">
<title>10015-&gt;2</title>
<path fill="none" stroke="#000000" stroke-width=".5" d="M499,-605.9357C499,-593.0551 499,-576.7856 499,-563.1391"/>
<polygon fill="#000000" stroke="#000000" stroke-width=".5" points="500.7501,-562.8574 499,-557.8574 497.2501,-562.8575 500.7501,-562.8574"/>
</g>
<!-- 10015&#45;&gt;6 -->
<g id="edge20" class="edge">
<title>10015-&gt;6</title>
<path fill="none" stroke="#000000" stroke-width=".5" d="M471.7906,-613.8711C459.8963,-607.1727 445.9599,-598.8438 434,-590.4 421.4354,-581.5293 408.33,-570.8006 397.2058,-561.1963"/>
<polygon fill="#000000" stroke="#000000" stroke-width=".5" points="398.123,-559.6747 393.2017,-557.7142 395.8263,-562.3158 398.123,-559.6747"/>
</g>
<!-- 8 -->
<g id="node23" class="node">
<title>8</title>
<text text-anchor="middle" x="629" y="-699.4" font-family="Courier New" font-size="30.00" fill="#000000">y_{8}</text>
</g>
<!-- 10016 -->
<g id="node24" class="node">
<title>10016</title>
<text text-anchor="middle" x="616" y="-619.4" font-family="Courier New" font-size="30.00" fill="#000000">^</text>
</g>
<!-- 8&#45;&gt;10016 -->
<g id="edge24" class="edge">
<title>8-&gt;10016</title>
<path fill="none" stroke="#000000" stroke-width=".5" d="M625.3788,-686.1155C623.8433,-676.6666 622.0393,-665.565 620.4258,-655.6356"/>
<polygon fill="#000000" stroke="#000000" stroke-width=".5" points="622.1312,-655.2195 619.6018,-650.565 618.6765,-655.7809 622.1312,-655.2195"/>
</g>
<!-- 10016&#45;&gt;2 -->
<g id="edge22" class="edge">
<title>10016-&gt;2</title>
<path fill="none" stroke="#000000" stroke-width=".5" d="M588.7451,-609.0282C580.6907,-603.1577 571.9142,-596.6157 564,-590.4 552.111,-581.0624 539.3307,-570.4248 528.2755,-561.022"/>
<polygon fill="#000000" stroke="#000000" stroke-width=".5" points="529.2252,-559.5319 524.2854,-557.6183 526.9537,-562.1947 529.2252,-559.5319"/>
</g>
<!-- 10017 -->
<g id="node25" class="node">
<title>10017</title>
<text text-anchor="middle" x="616" y="-526.6" font-family="Courier New" font-size="30.00" fill="#000000">2</text>
</g>
<!-- 10016&#45;&gt;10017 -->
<g id="edge23" class="edge">
<title>10016-&gt;10017</title>
<path fill="none" stroke="#000000" stroke-width=".5" d="M616,-605.9357C616,-593.0551 616,-576.7856 616,-563.1391"/>
<polygon fill="#000000" stroke="#000000" stroke-width=".5" points="617.7501,-562.8574 616,-557.8574 614.2501,-562.8575 617.7501,-562.8574"/>
</g>
<!-- 9 -->
<g id="node26" class="node">
<title>9</title>
<text text-anchor="middle" x="564" y="-872.2" font-family="Courier New" font-size="30.00" fill="#000000">y_{9}</text>
</g>
<!-- 10018 -->
<g id="node27" class="node">
<title>10018</title>
<text text-anchor="middle" x="564" y="-792.2" font-family="Courier New" font-size="30.00" fill="#000000">/</text>
</g>
<!-- 9&#45;&gt;10018 -->
<g id="edge27" class="edge">
<title>9-&gt;10018</title>
<path fill="none" stroke="#000000" stroke-width=".5" d="M564,-858.9155C564,-849.4666 564,-838.365 564,-828.4356"/>
<polygon fill="#000000" stroke="#000000" stroke-width=".5" points="565.7501,-828.3649 564,-823.365 562.2501,-828.365 565.7501,-828.3649"/>
</g>
<!-- 10018&#45;&gt;7 -->
<g id="edge25" class="edge">
<title>10018-&gt;7</title>
<path fill="none" stroke="#000000" stroke-width=".5" d="M548.2653,-778.7357C539.0038,-765.5131 527.2409,-748.7193 517.5319,-734.8579"/>
<polygon fill="#000000" stroke="#000000" stroke-width=".5" points="518.8917,-733.7488 514.5898,-730.6574 516.025,-735.7568 518.8917,-733.7488"/>
</g>
<!-- 10018&#45;&gt;8 -->
<g id="edge26" class="edge">
<title>10018-&gt;8</title>
<path fill="none" stroke="#000000" stroke-width=".5" d="M579.7347,-778.7357C588.9962,-765.5131 600.7591,-748.7193 610.4681,-734.8579"/>
<polygon fill="#000000" stroke="#000000" stroke-width=".5" points="611.975,-735.7568 613.4102,-730.6574 609.1083,-733.7488 611.975,-735.7568"/>
</g>
</g>
</svg>