<?xml version="1.0" encoding="UTF-8" standalone="no"?><!DOCTYPE svg PUBLIC "-//W3C//DTD SVG 1.1//EN" "http://www.w3.org/Graphics/SVG/1.1/DTD/svg11.dtd"><!-- Generated by graphviz version 2.40.1 (20161225.0304)
 --><!-- Title: G Pages: 1 --><svg xmlns="http://www.w3.org/2000/svg" xmlns:xlink="http://www.w3.org/1999/xlink" width="278pt" height="292pt" viewBox="0.00 0.00 278.00 292.00">
<g id="graph0" class="graph" transform="scale(1 1) rotate(0) translate(4 288)">
<title>G</title>
<polygon fill="#ffffff" stroke="transparent" points="-4,4 -4,-288 274,-288 274,4 -4,4"/>
<!-- 1 -->
<g id="node1" class="node">
<title>1</title>
<text text-anchor="middle" x="171" y="-253" font-family="Courier New" font-size="30.00" fill="#000000">+</text>
</g>
<!-- 2 -->
<g id="node2" class="node">
<title>2</title>
<text text-anchor="middle" x="99" y="-173" font-family="Courier New" font-size="30.00" fill="#000000">*</text>
</g>
<!-- 1&#45;&gt;2 -->
<g id="edge1" class="edge">
<title>1-&gt;2</title>
<path fill="none" stroke="#000000" stroke-width=".5" d="M150.944,-239.7155C142.1279,-229.9199 131.7132,-218.348 122.5326,-208.1473"/>
<polygon fill="#000000" stroke="#000000" stroke-width=".5" points="123.5941,-206.7107 118.9485,-204.165 120.9925,-209.0521 123.5941,-206.7107"/>
</g>
<!-- 12 -->
<g id="node7" class="node">
<title>12</title>
<text text-anchor="middle" x="171" y="-173" font-family="Courier New" font-size="30.00" fill="#000000">*</text>
</g>
<!-- 1&#45;&gt;12 -->
<g id="edge6" class="edge">
<title>1-&gt;12</title>
<path fill="none" stroke="#000000" stroke-width=".5" d="M171,-239.7155C171,-230.2666 171,-219.165 171,-209.2356"/>
<polygon fill="#000000" stroke="#000000" stroke-width=".5" points="172.7501,-209.1649 171,-204.165 169.2501,-209.165 172.7501,-209.1649"/>
</g>
<!-- 18 -->
<g id="node10" class="node">
<title>18</title>
<text text-anchor="middle" x="243" y="-173" font-family="Courier New" font-size="30.00" fill="#000000">1</text>
</g>
<!-- 1&#45;&gt;18 -->
<g id="edge9" class="edge">
<title>1-&gt;18</title>
<path fill="none" stroke="#000000" stroke-width=".5" d="M191.056,-239.7155C199.8721,-229.9199 210.2868,-218.348 219.4674,-208.1473"/>
<polygon fill="#000000" stroke="#000000" stroke-width=".5" points="221.0075,-209.0521 223.0515,-204.165 218.4059,-206.7107 221.0075,-209.0521"/>
</g>
<!-- 4 -->
<g id="node3" class="node">
<title>4</title>
<text text-anchor="middle" x="27" y="-93" font-family="Courier New" font-size="30.00" fill="#000000">2</text>
</g>
<!-- 2&#45;&gt;4 -->
<g id="edge2" class="edge">
<title>2-&gt;4</title>
<path fill="none" stroke="#000000" stroke-width=".5" d="M78.944,-159.7155C70.1279,-149.9199 59.7132,-138.348 50.5326,-128.1473"/>
<polygon fill="#000000" stroke="#000000" stroke-width=".5" points="51.5941,-126.7107 46.9485,-124.165 48.9925,-129.0521 51.5941,-126.7107"/>
</g>
<!-- 6 -->
<g id="node4" class="node">
<title>6</title>
<text text-anchor="middle" x="99" y="-93" font-family="Courier New" font-size="30.00" fill="#000000">^</text>
</g>
<!-- 2&#45;&gt;6 -->
<g id="edge3" class="edge">
<title>2-&gt;6</title>
<path fill="none" stroke="#000000" stroke-width=".5" d="M99,-159.7155C99,-150.2666 99,-139.165 99,-129.2356"/>
<polygon fill="#000000" stroke="#000000" stroke-width=".5" points="100.7501,-129.1649 99,-124.165 97.2501,-129.165 100.7501,-129.1649"/>
</g>
<!-- 8 -->
<g id="node5" class="node">
<title>8</title>
<text text-anchor="middle" x="63" y="-13" font-family="Courier New" font-size="30.00" fill="#000000">x</text>
</g>
<!-- 6&#45;&gt;8 -->
<g id="edge4" class="edge">
<title>6-&gt;8</title>
<path fill="none" stroke="#000000" stroke-width=".5" d="M88.972,-79.7155C84.681,-70.18 79.6325,-58.9611 75.1332,-48.9626"/>
<polygon fill="#000000" stroke="#000000" stroke-width=".5" points="76.622,-48.0064 72.9742,-44.165 73.4302,-49.4427 76.622,-48.0064"/>
</g>
<!-- 10 -->
<g id="node6" class="node">
<title>10</title>
<text text-anchor="middle" x="135" y="-13" font-family="Courier New" font-size="30.00" fill="#000000">2</text>
</g>
<!-- 6&#45;&gt;10 -->
<g id="edge5" class="edge">
<title>6-&gt;10</title>
<path fill="none" stroke="#000000" stroke-width=".5" d="M109.028,-79.7155C113.319,-70.18 118.3675,-58.9611 122.8668,-48.9626"/>
<polygon fill="#000000" stroke="#000000" stroke-width=".5" points="124.5698,-49.4427 125.0258,-44.165 121.378,-48.0064 124.5698,-49.4427"/>
</g>
<!-- 14 -->
<g id="node8" class="node">
<title>14</title>
<text text-anchor="middle" x="171" y="-93" font-family="Courier New" font-size="30.00" fill="#000000">3</text>
</g>
<!-- 12&#45;&gt;14 -->
<g id="edge7" class="edge">
<title>12-&gt;14</title>
<path fill="none" stroke="#000000" stroke-width=".5" d="M171,-159.7155C171,-150.2666 171,-139.165 171,-129.2356"/>
<polygon fill="#000000" stroke="#000000" stroke-width=".5" points="172.7501,-129.1649 171,-124.165 169.2501,-129.165 172.7501,-129.1649"/>
</g>
<!-- 16 -->
<g id="node9" class="node">
<title>16</title>
<text text-anchor="middle" x="243" y="-93" font-family="Courier New" font-size="30.00" fill="#000000">x</text>
</g>
<!-- 12&#45;&gt;16 -->
<g id="edge8" class="edge">
<title>12-&gt;16</title>
<path fill="none" stroke="#000000" stroke-width=".5" d="M191.056,-159.7155C199.8721,-149.9199 210.2868,-138.348 219.4674,-128.1473"/>
<polygon fill="#000000" stroke="#000000" stroke-width=".5" points="221.0075,-129.0521 223.0515,-124.165 218.4059,-126.7107 221.0075,-129.0521"/>
</g>
</g>
</svg>