<?xml version="1.0" encoding="UTF-8" standalone="no"?><!DOCTYPE svg PUBLIC "-//W3C//DTD SVG 1.1//EN" "http://www.w3.org/Graphics/SVG/1.1/DTD/svg11.dtd"><!-- Generated by graphviz version 2.40.1 (20161225.0304)
 --><!-- Title: G Pages: 1 --><svg xmlns="http://www.w3.org/2000/svg" xmlns:xlink="http://www.w3.org/1999/xlink" width="170pt" height="212pt" viewBox="0.00 0.00 170.00 212.00">
<g id="graph0" class="graph" transform="scale(1 1) rotate(0) translate(4 208)">
<title>G</title>
<polygon fill="#ffffff" stroke="transparent" points="-4,4 -4,-208 166,-208 166,4 -4,4"/>
<!-- 1 -->
<g id="node1" class="node">
<title>1</title>
<text text-anchor="middle" x="99" y="-173" font-family="Courier New" font-size="30.00" fill="#000000">+</text>
</g>
<!-- 2 -->
<g id="node2" class="node">
<title>2</title>
<text text-anchor="middle" x="63" y="-93" font-family="Courier New" font-size="30.00" fill="#000000">*</text>
</g>
<!-- 1&#45;&gt;2 -->
<g id="edge1" class="edge">
<title>1-&gt;2</title>
<path fill="none" stroke="#000000" stroke-width=".5" d="M88.972,-159.7155C84.681,-150.18 79.6325,-138.9611 75.1332,-128.9626"/>
<polygon fill="#000000" stroke="#000000" stroke-width=".5" points="76.622,-128.0064 72.9742,-124.165 73.4302,-129.4427 76.622,-128.0064"/>
</g>
<!-- 8 -->
<g id="node5" class="node">
<title>8</title>
<text text-anchor="middle" x="135" y="-93" font-family="Courier New" font-size="30.00" fill="#000000">3</text>
</g>
<!-- 1&#45;&gt;8 -->
<g id="edge4" class="edge">
<title>1-&gt;8</title>
<path fill="none" stroke="#000000" stroke-width=".5" d="M109.028,-159.7155C113.319,-150.18 118.3675,-138.9611 122.8668,-128.9626"/>
<polygon fill="#000000" stroke="#000000" stroke-width=".5" points="124.5698,-129.4427 125.0258,-124.165 121.378,-128.0064 124.5698,-129.4427"/>
</g>
<!-- 4 -->
<g id="node3" class="node">
<title>4</title>
<text text-anchor="middle" x="27" y="-13" font-family="Courier New" font-size="30.00" fill="#000000">4</text>
</g>
<!-- 2&#45;&gt;4 -->
<g id="edge2" class="edge">
<title>2-&gt;4</title>
<path fill="none" stroke="#000000" stroke-width=".5" d="M52.972,-79.7155C48.681,-70.18 43.6325,-58.9611 39.1332,-48.9626"/>
<polygon fill="#000000" stroke="#000000" stroke-width=".5" points="40.622,-48.0064 36.9742,-44.165 37.4302,-49.4427 40.622,-48.0064"/>
</g>
<!-- 6 -->
<g id="node4" class="node">
<title>6</title>
<text text-anchor="middle" x="99" y="-13" font-family="Courier New" font-size="30.00" fill="#000000">x</text>
</g>
<!-- 2&#45;&gt;6 -->
<g id="edge3" class="edge">
<title>2-&gt;6</title>
<path fill="none" stroke="#000000" stroke-width=".5" d="M73.028,-79.7155C77.319,-70.18 82.3675,-58.9611 86.8668,-48.9626"/>
<polygon fill="#000000" stroke="#000000" stroke-width=".5" points="88.5698,-49.4427 89.0258,-44.165 85.378,-48.0064 88.5698,-49.4427"/>
</g>
</g>
</svg>