<?xml version="1.0" encoding="UTF-8" standalone="no"?><!DOCTYPE svg PUBLIC "-//W3C//DTD SVG 1.1//EN" "http://www.w3.org/Graphics/SVG/1.1/DTD/svg11.dtd"><!-- Generated by graphviz version 2.40.1 (20161225.0304)
 --><!-- Title: G Pages: 1 --><svg xmlns="http://www.w3.org/2000/svg" xmlns:xlink="http://www.w3.org/1999/xlink" width="566pt" height="292pt" viewBox="0.00 0.00 566.00 292.00">
<g id="graph0" class="graph" transform="scale(1 1) rotate(0) translate(4 288)">
<title>G</title>
<polygon fill="#ffffff" stroke="transparent" points="-4,4 -4,-288 562,-288 562,4 -4,4"/>
<!-- 1 -->
<g id="node1" class="node">
<title>1</title>
<text text-anchor="middle" x="279" y="-253" font-family="Courier New" font-size="30.00" fill="#000000">*</text>
</g>
<!-- 2 -->
<g id="node2" class="node">
<title>2</title>
<text text-anchor="middle" x="207" y="-173" font-family="Courier New" font-size="30.00" fill="#000000">*</text>
</g>
<!-- 1&#45;&gt;2 -->
<g id="edge1" class="edge">
<title>1-&gt;2</title>
<path fill="none" stroke="#000000" stroke-width=".5" d="M258.944,-239.7155C250.1279,-229.9199 239.7132,-218.348 230.5326,-208.1473"/>
<polygon fill="#000000" stroke="#000000" stroke-width=".5" points="231.5941,-206.7107 226.9485,-204.165 228.9925,-209.0521 231.5941,-206.7107"/>
</g>
<!-- 9 -->
<g id="node9" class="node">
<title>9</title>
<text text-anchor="middle" x="351" y="-173" font-family="Courier New" font-size="30.00" fill="#000000">*</text>
</g>
<!-- 1&#45;&gt;9 -->
<g id="edge8" class="edge">
<title>1-&gt;9</title>
<path fill="none" stroke="#000000" stroke-width=".5" d="M299.056,-239.7155C307.8721,-229.9199 318.2868,-218.348 327.4674,-208.1473"/>
<polygon fill="#000000" stroke="#000000" stroke-width=".5" points="329.0075,-209.0521 331.0515,-204.165 326.4059,-206.7107 329.0075,-209.0521"/>
</g>
<!-- 3 -->
<g id="node3" class="node">
<title>3</title>
<text text-anchor="middle" x="99" y="-93" font-family="Courier New" font-size="30.00" fill="#000000">*</text>
</g>
<!-- 2&#45;&gt;3 -->
<g id="edge2" class="edge">
<title>2-&gt;3</title>
<path fill="none" stroke="#000000" stroke-width=".5" d="M179.747,-161.8126C164.782,-150.7274 146.1505,-136.9263 130.5564,-125.3751"/>
<polygon fill="#000000" stroke="#000000" stroke-width=".5" points="131.3037,-123.7509 126.2442,-122.1809 129.2204,-126.5633 131.3037,-123.7509"/>
</g>
<!-- 6 -->
<g id="node6" class="node">
<title>6</title>
<text text-anchor="middle" x="207" y="-93" font-family="Courier New" font-size="30.00" fill="#000000">*</text>
</g>
<!-- 2&#45;&gt;6 -->
<g id="edge5" class="edge">
<title>2-&gt;6</title>
<path fill="none" stroke="#000000" stroke-width=".5" d="M207,-159.7155C207,-150.2666 207,-139.165 207,-129.2356"/>
<polygon fill="#000000" stroke="#000000" stroke-width=".5" points="208.7501,-129.1649 207,-124.165 205.2501,-129.165 208.7501,-129.1649"/>
</g>
<!-- 4 -->
<g id="node4" class="node">
<title>4</title>
<text text-anchor="middle" x="27" y="-13" font-family="Courier New" font-size="30.00" fill="#000000">x</text>
</g>
<!-- 3&#45;&gt;4 -->
<g id="edge3" class="edge">
<title>3-&gt;4</title>
<path fill="none" stroke="#000000" stroke-width=".5" d="M78.944,-79.7155C70.1279,-69.9199 59.7132,-58.348 50.5326,-48.1473"/>
<polygon fill="#000000" stroke="#000000" stroke-width=".5" points="51.5941,-46.7107 46.9485,-44.165 48.9925,-49.0521 51.5941,-46.7107"/>
</g>
<!-- 5 -->
<g id="node5" class="node">
<title>5</title>
<text text-anchor="middle" x="99" y="-13" font-family="Courier New" font-size="30.00" fill="#000000">x</text>
</g>
<!-- 3&#45;&gt;5 -->
<g id="edge4" class="edge">
<title>3-&gt;5</title>
<path fill="none" stroke="#000000" stroke-width=".5" d="M99,-79.7155C99,-70.2666 99,-59.165 99,-49.2356"/>
<polygon fill="#000000" stroke="#000000" stroke-width=".5" points="100.7501,-49.1649 99,-44.165 97.2501,-49.165 100.7501,-49.1649"/>
</g>
<!-- 7 -->
<g id="node7" class="node">
<title>7</title>
<text text-anchor="middle" x="171" y="-13" font-family="Courier New" font-size="30.00" fill="#000000">x</text>
</g>
<!-- 6&#45;&gt;7 -->
<g id="edge6" class="edge">
<title>6-&gt;7</title>
<path fill="none" stroke="#000000" stroke-width=".5" d="M196.972,-79.7155C192.681,-70.18 187.6325,-58.9611 183.1332,-48.9626"/>
<polygon fill="#000000" stroke="#000000" stroke-width=".5" points="184.622,-48.0064 180.9742,-44.165 181.4302,-49.4427 184.622,-48.0064"/>
</g>
<!-- 8 -->
<g id="node8" class="node">
<title>8</title>
<text text-anchor="middle" x="243" y="-13" font-family="Courier New" font-size="30.00" fill="#000000">x</text>
</g>
<!-- 6&#45;&gt;8 -->
<g id="edge7" class="edge">
<title>6-&gt;8</title>
<path fill="none" stroke="#000000" stroke-width=".5" d="M217.028,-79.7155C221.319,-70.18 226.3675,-58.9611 230.8668,-48.9626"/>
<polygon fill="#000000" stroke="#000000" stroke-width=".5" points="232.5698,-49.4427 233.0258,-44.165 229.378,-48.0064 232.5698,-49.4427"/>
</g>
<!-- 10 -->
<g id="node10" class="node">
<title>10</title>
<text text-anchor="middle" x="351" y="-93" font-family="Courier New" font-size="30.00" fill="#000000">*</text>
</g>
<!-- 9&#45;&gt;10 -->
<g id="edge9" class="edge">
<title>9-&gt;10</title>
<path fill="none" stroke="#000000" stroke-width=".5" d="M351,-159.7155C351,-150.2666 351,-139.165 351,-129.2356"/>
<polygon fill="#000000" stroke="#000000" stroke-width=".5" points="352.7501,-129.1649 351,-124.165 349.2501,-129.165 352.7501,-129.1649"/>
</g>
<!-- 13 -->
<g id="node13" class="node">
<title>13</title>
<text text-anchor="middle" x="459" y="-93" font-family="Courier New" font-size="30.00" fill="#000000">*</text>
</g>
<!-- 9&#45;&gt;13 -->
<g id="edge12" class="edge">
<title>9-&gt;13</title>
<path fill="none" stroke="#000000" stroke-width=".5" d="M378.253,-161.8126C393.218,-150.7274 411.8495,-136.9263 427.4436,-125.3751"/>
<polygon fill="#000000" stroke="#000000" stroke-width=".5" points="428.7796,-126.5633 431.7558,-122.1809 426.6963,-123.7509 428.7796,-126.5633"/>
</g>
<!-- 11 -->
<g id="node11" class="node">
<title>11</title>
<text text-anchor="middle" x="315" y="-13" font-family="Courier New" font-size="30.00" fill="#000000">x</text>
</g>
<!-- 10&#45;&gt;11 -->
<g id="edge10" class="edge">
<title>10-&gt;11</title>
<path fill="none" stroke="#000000" stroke-width=".5" d="M340.972,-79.7155C336.681,-70.18 331.6325,-58.9611 327.1332,-48.9626"/>
<polygon fill="#000000" stroke="#000000" stroke-width=".5" points="328.622,-48.0064 324.9742,-44.165 325.4302,-49.4427 328.622,-48.0064"/>
</g>
<!-- 12 -->
<g id="node12" class="node">
<title>12</title>
<text text-anchor="middle" x="387" y="-13" font-family="Courier New" font-size="30.00" fill="#000000">x</text>
</g>
<!-- 10&#45;&gt;12 -->
<g id="edge11" class="edge">
<title>10-&gt;12</title>
<path fill="none" stroke="#000000" stroke-width=".5" d="M361.028,-79.7155C365.319,-70.18 370.3675,-58.9611 374.8668,-48.9626"/>
<polygon fill="#000000" stroke="#000000" stroke-width=".5" points="376.5698,-49.4427 377.0258,-44.165 373.378,-48.0064 376.5698,-49.4427"/>
</g>
<!-- 14 -->
<g id="node14" class="node">
<title>14</title>
<text text-anchor="middle" x="459" y="-13" font-family="Courier New" font-size="30.00" fill="#000000">x</text>
</g>
<!-- 13&#45;&gt;14 -->
<g id="edge13" class="edge">
<title>13-&gt;14</title>
<path fill="none" stroke="#000000" stroke-width=".5" d="M459,-79.7155C459,-70.2666 459,-59.165 459,-49.2356"/>
<polygon fill="#000000" stroke="#000000" stroke-width=".5" points="460.7501,-49.1649 459,-44.165 457.2501,-49.165 460.7501,-49.1649"/>
</g>
<!-- 15 -->
<g id="node15" class="node">
<title>15</title>
<text text-anchor="middle" x="531" y="-13" font-family="Courier New" font-size="30.00" fill="#000000">x</text>
</g>
<!-- 13&#45;&gt;15 -->
<g id="edge14" class="edge">
<title>13-&gt;15</title>
<path fill="none" stroke="#000000" stroke-width=".5" d="M479.056,-79.7155C487.8721,-69.9199 498.2868,-58.348 507.4674,-48.1473"/>
<polygon fill="#000000" stroke="#000000" stroke-width=".5" points="509.0075,-49.0521 511.0515,-44.165 506.4059,-46.7107 509.0075,-49.0521"/>
</g>
</g>
</svg>